<?xml version="1.0" encoding="utf-8"?>
<!-- Generator: Adobe Illustrator 15.0.0, SVG Export Plug-In  -->
<!DOCTYPE svg PUBLIC "-//W3C//DTD SVG 1.1//EN" "http://www.w3.org/Graphics/SVG/1.1/DTD/svg11.dtd" [
	<!ENTITY ns_flows "http://ns.adobe.com/Flows/1.0/">
]>
<svg version="1.1"
	 xmlns="http://www.w3.org/2000/svg" xmlns:xlink="http://www.w3.org/1999/xlink" xmlns:a="http://ns.adobe.com/AdobeSVGViewerExtensions/3.0/"
	 x="0px" y="0px" width="1920px" height="300px" viewBox="185.409 0 1920 300" enable-background="new 185.409 0 1920 300"
	 xml:space="preserve">
<defs>
</defs>
<g>
	<defs>
		<rect id="SVGID_1_" x="185.409" width="1920" height="300"/>
	</defs>
	<clipPath id="SVGID_2_">
		<use xlink:href="#SVGID_1_"  overflow="visible"/>
	</clipPath>
	<linearGradient id="SVGID_3_" gradientUnits="userSpaceOnUse" x1="1294.5903" y1="269.5645" x2="2313.4084" y2="-639.4459">
		<stop  offset="0" style="stop-color:#0A52EB"/>
		<stop  offset="1" style="stop-color:#F49E0A"/>
	</linearGradient>
	<path clip-path="url(#SVGID_2_)" fill="none" stroke="url(#SVGID_3_)" stroke-width="2" stroke-opacity="0.6" d="M136.064,225.86
		c78.041-13.939,655.464-72.579,716.003-64.749c60.54,7.828,184.759,99.517,322.238,75.138
		c134.942-23.931,334.778-127.332,432.778-132.501c97.991-5.169,219.531,22.455,323.792,41.399
		c104.26,18.944,310.255,157.368,310.255,157.368s-57.162-34.701-181.614-23.487c-124.461,11.214-286.341-30.111-364.586-42.779
		c-78.259-12.668-353.996-220.164-487.65-187.674c-91.822,22.321-375.417,171.108-520.492,159.264
		C541.714,195.996,14.66,187.93,98.318,151.05c83.66-36.88,550.733-91.362,698.048-75.588
		c147.315,15.774,514.82,153.523,622.46,145.596c107.64-7.926,399.774-147.909,553.578-114.182
		c153.814,33.727,295.88,171.113,295.88,171.113s-240.582-41.671-346.874-37.939c-106.289,3.733-417.884-182.209-556.268-116.724
		c-138.392,65.485-381.928,90.219-456.155,97.732c-74.227,7.515-334.998-86.937-430.751-77.837
		c-95.754,9.1-516.569,232.706-423.038,186.908c93.53-45.8,508.398-183.2,671.868-185c163.468-1.799,359.774,21.22,511.13,24.408
		c151.359,3.188,279.646-47.217,470.016-34.614s655.332,211.824,572.389,164.686c-82.944-47.137-371.254-152.876-537.659-103.759
		c-166.415,49.119-334.749-75.695-598.659-99.266c-263.913-23.57-306.555,69.754-552.773,83.791
		C345.29,194.411,0.409,39.951,0.409,39.951"/>
</g>
</svg>
