<svg xmlns="http://www.w3.org/2000/svg" xmlns:xlink="http://www.w3.org/1999/xlink" id="Layer_1" x="0px" y="0px" width="1182px" height="329px" viewBox="0 0 1182 329" xml:space="preserve"> <g> <rect fill="none" width="1182" height="329"></rect> <path fill="#8782BD" d="M137.463,137.006c40.887,0,81.775,0,122.651,0c9.583,0,15.062,5.427,15.107,15.007 c0.045,8.408,0.068,16.816,0,25.223c-0.08,8.738-5.49,14.244-14.266,14.666c-0.659,0.033-1.318,0.021-1.978,0.021 c-81.115,0-162.22-0.011-243.336-0.033c-10.355,0-15.63-5.244-15.63-15.451c0-8.19-0.011-16.382,0.023-24.574 c0.045-9.727,5.24-14.87,15.107-14.87c40.774-0.011,81.548,0,122.322,0V137.006L137.463,137.006z"></path> <path fill="#BC61A5" d="M164.619,260.337c-31.339,0-62.667-0.204-94.006,0.114c-10.765,0.113-16.176-7.885-15.857-15.871 c0.295-7.635,0.103-15.28,0.057-22.926c-0.057-10.512,5.763-16.372,16.425-16.383c46.344,0,92.687,0,139.031,0 c16.323,0,32.647-0.023,48.97,0c7.991,0,14.311,3.561,15.277,10.205c1.66,11.435,1.467,23.106,0.114,34.553 c-0.807,6.816-6.752,10.308-14.357,10.308c-31.885,0.022-63.769,0-95.643,0v-0.022L164.619,260.337z"></path> <path fill="#099EDA" d="M109.659,123.285c-31.556,0-63.111,0-94.666,0c-9.548,0-14.982-5.472-14.982-15.052 c0-8.51-0.034-17.032,0.023-25.542c0.057-8.567,5.831-14.347,14.425-14.358c63.872-0.034,127.744-0.045,191.616-0.022 c7.786,0,13.754,5.825,14.038,13.505c0.353,9.159,0.353,18.329,0.034,27.488c-0.295,8.499-6.002,13.982-14.538,13.982 c-31.987,0-63.986,0-95.973,0L109.659,123.285L109.659,123.285z"></path> <path fill="#EE4D9C" d="M220.284,274.036c13.686,0,27.383-0.013,41.069,0c8.344,0.011,13.788,5.336,13.857,13.664 c0.079,9.056,0.091,18.112,0.011,27.169c-0.08,8.806-5.593,14.12-14.504,14.12c-27.054,0-54.108,0.011-81.162-0.023 c-4.819,0-8.991-1.513-11.935-5.632c-1.58-2.219-2.421-4.607-2.41-7.316c0.011-9.716-0.057-19.42,0.023-29.137 c0.056-7.236,5.66-12.788,12.992-12.822C192.241,273.99,206.268,274.036,220.284,274.036z"></path> <path fill="#099EDA" d="M55.13,0C68.6,0,82.07,0,95.541,0c8.946,0,14.493,5.495,14.538,14.495c0.046,8.408,0.023,16.804,0,25.212 c-0.034,9.523-5.501,15.029-15.095,15.052C73.841,54.804,52.71,54.77,31.567,54.77c-5.695,0-11.39,0.057-17.073,0 C5.649,54.668,0.091,49.162,0.045,40.446C-0.011,31.504,0,22.55,0.034,13.607C0.068,5.734,5.809,0.034,13.72,0.011 c13.8-0.034,27.599,0,41.399,0L55.13,0z"></path> <path fill="#3E3E40" d="M534.892,145.232c-8.844-4.744-10.924-9.807,1.33-16.998c-1.046-0.364-1.908-0.637-2.762-0.955 c-7.571-2.856-11.561-8.886-11.254-16.998c0.271-7.327,4.968-12.971,13.652-15.109c9.854-2.423,19.756-2.697,29.02,2.503 c1.41,0.785,2.137,0.398,3.081-0.535c1.875-1.854,4.069-3.299,6.422-4.505c3.615-1.843,5.286-1.502,6.605,2.23 c0.966,2.719,2.112,2.604,4.455,1.888c5.764-1.763,11.661-2.89,17.743-3.026c2.229-0.045,2.875,0.706,2.739,2.799 c-0.146,2.252-0.034,4.528-0.034,6.712c0.773,0.376,0.934-0.159,1.148-0.455c6.229-8.772,14.05-10.535,24.007-8.203 c6.002,1.411,8.833,6.076,10.174,11.707c0.864,3.63,1.014,7.339,0.989,11.059c-0.034,7.316,0.114,14.632-0.08,21.947 c-0.067,2.469,0.512,3.675,3.047,4.233c2.091,0.466,4.685,0.842,4.319,4.198c-0.147,1.377-0.489,1.889-1.921,1.877 c-8.436-0.045-16.88-0.011-25.314-0.034c-0.817,0-1.967,0.182-1.887-1.16c0.067-1.297-0.785-3.232,1.182-3.618 c5.185-1.013,4.899-4.699,4.797-8.613c-0.157-6.44-0.032-12.879-0.046-19.319c0-2.958-0.216-5.882-1.227-8.704 c-1.604-4.471-5.241-6.428-9.833-5.279c-5.547,1.388-9.344,6.19-9.366,11.89c-0.021,8.294,0.056,16.599-0.069,24.893 c-0.032,2.151,0.364,3.55,2.685,3.994c0.728,0.136,1.396,0.614,2.08,0.956c1.66,0.853,1.251,2.4,1.182,3.765 c-0.091,1.798-1.557,1.172-2.512,1.184c-8.002,0.045-15.993,0.057-23.996,0c-0.943,0-2.479,0.603-2.512-1.172 c-0.023-1.4-0.684-3.391,1.58-3.686c5.613-0.751,5.638-4.472,5.513-8.92c-0.273-10.035-0.159-20.093-0.058-30.128 c0.022-2.161-0.487-3.174-2.797-3.333c-1.567-0.103-3.658,0.637-4.479-1.684c-0.045-0.125-0.466-0.273-0.511-0.228 c-3.014,3.152-6.832,0.956-10.231,1.479c-1.75,0.273-1.557,0.774-1.034,2.082c4.501,11.367,0.159,20.298-11.524,23.904 c-4.979,1.536-10.072,2.003-15.232,1.502c-1.717-0.159-2.978,0-3.513,1.934c-0.559,2.048,0.501,3.05,2.114,3.846 c4.604,2.23,9.695,2.583,14.562,3.834c3.399,0.876,6.763,1.809,9.935,3.3c4.819,2.264,8.879,5.256,9.379,11.172 c0.546,6.417-2.593,10.888-7.774,14.097c-8.105,5.019-17.176,5.449-26.361,5.019c-5.615-0.263-11.117-1.081-16.05-4.107 c-8.094-4.983-8.116-14.757-0.046-19.751c2.535-1.57,5.354-2.446,8.685-3.448L534.892,145.232L534.892,145.232z M549.249,166.701 c1.921-0.387,3.897-0.592,5.74-1.194c3.501-1.138,5.831-3.504,6.114-7.293c0.263-3.493-1.888-5.598-4.75-7.156 c-3.514-1.923-7.436-2.481-11.221-3.516c-4.318-1.183-7.093,0.398-8.412,4.778C534.278,160.387,539.677,166.52,549.249,166.701z M538.166,111.521c-0.125,2.537,0.159,4.983,1.193,7.338c0.782,1.81,2.058,3.038,3.908,3.687 c4.811,1.672,10.187,0.193,11.961-3.254c2.612-5.074,1.657-15.155-1.694-17.578c-0.433-0.319-0.944-0.592-1.455-0.74 c-7.639-2.184-13.517-0.58-13.925,8.59c-0.034,0.649,0,1.309,0,1.957H538.166z"></path> <path fill="#3E3E40" d="M375.991,217.342c3.126,1.445,6.343,2.037,9.148,3.676c12.097,7.076,12.517,24.449,0.819,32.254 c-8.037,5.359-17.131,6.383-26.429,6.064c-9.082-0.307-18.153-0.716-27.247-0.738c-1.023,0-2.604,0.729-2.785-1.264 c-0.148-1.661-0.307-3.346,1.853-3.959c0.423-0.114,0.809-0.33,1.218-0.501c3.926-1.608,5.888-4.524,5.888-8.749 c0-17.032-0.056-34.053,0.069-51.085c0.021-2.548-0.719-3.731-3.195-4.222c-1.568-0.317-3.023-1.205-4.546-1.774 c-1.944-0.716-1.229-2.354-1.229-3.64c0-1.81,1.535-1.172,2.469-1.185c11.274-0.228,22.552-0.467,33.826-0.579 c4.729-0.046,9.437,0.487,13.914,2.069c7.4,2.617,11.151,7.918,11.276,15.53c0.125,7.395-4.126,13.777-11.072,16.609 c-1.307,0.535-2.646,0.99-3.978,1.479L375.991,217.342L375.991,217.342z M354.45,237.298c0,1.957,0,3.925,0,5.882 c0,9.172,1.067,10.069,10.446,8.784c0.646-0.091,1.308-0.159,1.942-0.319c7.082-1.763,10.892-7.645,10.392-15.996 c-0.398-6.77-4.39-10.934-11.652-11.844c-2.91-0.363-5.899-0.182-8.832-0.421c-2.023-0.171-2.364,0.785-2.319,2.48 C354.507,229.675,354.45,233.486,354.45,237.298z M354.45,202.609h0.011c0,3.811-0.011,7.621,0.012,11.434 c0,0.921-0.271,2.23,1.229,2.173c4.522-0.171,9.229,0.523,13.129-2.753c5.148-4.335,6.559-9.785,5.036-16.145 c-1.229-5.131-4.865-7.611-9.798-8.283c-2.469-0.33-5.015-0.045-7.516-0.045c-1.717,0-2.171,0.933-2.137,2.514 c0.079,3.698,0.023,7.407,0.023,11.105H354.45z"></path> <path fill="#3E3E40" d="M679.584,214.327c3.933-6.155,8.378-10.33,14.834-11.252c11.947-1.718,19.233,2.696,20.848,13.698 c1.489,10.205,0.625,20.49,0.625,30.729c0,3.149,0.614,4.927,3.935,5.324c1.146,0.137,2.442,0.489,3.126,1.582 c1.284,2.059-0.034,4.209-2.569,4.209c-7.889,0.012-15.776,0.022-23.667-0.021c-0.954,0-2.455,0.625-2.591-1.082 c-0.125-1.535-0.682-3.572,1.614-4.039c4.192-0.843,4.581-3.584,4.397-7.19c-0.421-8.487,0.604-17.032-0.692-25.485 c-1.104-7.236-3.569-9.557-9.116-9.136c-5.274,0.397-10.719,6.121-10.753,11.446c-0.059,8.726,0.034,17.464-0.059,26.188 c-0.021,1.832,0.455,2.8,2.354,3.187c1.137,0.229,2.364,0.797,3.183,1.594c1.023,0.979,0.659,2.525,0.363,3.743 c-0.306,1.274-1.648,0.796-2.546,0.796c-8.002,0.046-15.993,0.035-23.996,0c-1,0-2.421,0.41-2.535-1.251 c-0.102-1.468-0.477-3.493,1.592-3.722c6.195-0.693,5.752-4.948,5.718-9.432c-0.137-18.341-0.158-36.67-0.033-55.01 c0.021-2.753-0.523-4.105-3.467-3.903c-0.854,0.058-1.729-0.227-2.604-0.327c-1.068-0.127-2.262,0.055-2.194-1.662 c0.069-1.49-0.361-3.037,1.764-3.606c4.559-1.218,9.194-2.048,13.855-2.64c8.571-1.092,8.582-1.012,8.582,7.43 c0,9.602,0,19.193,0,29.82L679.584,214.327z"></path> <path fill="#3E3E40" d="M1147.689,213.588c0,11.344,0.069,22.698-0.039,34.041c-0.021,2.48,0.619,3.471,3.25,3.551 c1.479,0.045,4.02-0.695,4.108,2.354c0.052,1.524-0.35,2.479-1.938,2.901c-5.82,1.535-11.631,2.99-17.69,3.334 c-2.03,0.111-2.59-0.604-2.75-2.526c-0.18-2.229,0.63-5.712-1.04-6.384c-1.79-0.717-2.52,2.822-3.97,4.302 c-8.8,8.897-25.69,5.54-30.601-6.804c-4.239-10.662-4.409-21.776,0.779-32.403c3.9-7.964,10.852-11.753,19.42-12.663 c4.23-0.455,8.562-0.648,12.682,0.818c1.648,0.582,1.898-0.125,1.89-1.467c-0.01-5.019-0.04-10.035,0.021-15.054 c0.028-1.581-0.73-2.093-2.171-2.159c-1.189-0.059-2.399-0.24-3.579-0.41c-1.19-0.172-2.761,0.285-2.521-1.945 c0.16-1.536-0.109-3.038,2.061-3.381c6.359-1.012,12.721-2.115,19.069-3.207c2.54-0.432,3.15,0.671,3.07,3.061 c-0.17,5.665-0.061,11.344-0.061,17.02c0,5.679,0,11.345,0,17.021H1147.689z M1131.77,226.751c0-4.356,0.021-8.715-0.01-13.071 c0-0.923,0.25-1.89-0.71-2.686c-4.41-3.676-14.39-1.809-16.648,3.617c-4.312,10.354-4.41,20.992-0.462,31.516 c1.32,3.493,4.682,5.165,8.45,4.904c5.182-0.354,9.15-4.995,9.36-11.207C1131.88,235.466,1131.77,231.109,1131.77,226.751z M1131.97,249.357c-0.06-0.067-0.14-0.135-0.22-0.215c-0.07,0.08-0.14,0.157-0.22,0.228c0.108,0.067,0.22,0.147,0.33,0.216 c0.028-0.08,0.068-0.148,0.108-0.238L1131.97,249.357L1131.97,249.357z"></path> <path fill="#3E3E40" d="M774.227,258.654c-5.147,0-10.299,0.021-15.437-0.023c-1.068,0-2.648,0.557-2.648-1.434 c0-1.467-0.421-3.141,1.671-3.754c1.568-0.467,3.069-1.32,4.66-1.525c2.331-0.296,2.66-1.523,2.649-3.549 c-0.068-18.659-0.068-37.318,0-55.967c0-1.979-0.5-2.9-2.546-3.299c-1.785-0.342-3.467-1.274-5.186-1.957 c-1.862-0.739-1.146-2.367-1.191-3.687c-0.046-1.252,0.966-1.274,1.862-1.239c12.597,0.567,25.155-1.253,37.739-0.559 c4.263,0.238,8.436,1.104,12.378,2.9c7.891,3.572,12.301,9.533,12.868,18.203c0.614,9.342-2.501,16.965-10.696,22.017 c-7.56,4.665-16.005,5.712-24.644,5.073c-3.251-0.237-4.411,0.375-4.172,3.856c0.341,4.995,0.182,10.035,0.045,15.054 c-0.057,1.922,0.603,2.695,2.456,3.016c2.146,0.375,4.206,1.172,6.343,1.593c2.341,0.466,2.534,2.024,2.341,3.901 c-0.227,2.185-1.955,1.32-3.058,1.344C784.514,258.711,779.365,258.654,774.227,258.654z M781.615,205.521c0,4.802,0,9.59,0,14.393 c0,1.148-0.318,2.4,1.558,2.615c3.762,0.422,7.457,0.4,10.937-1.229c7.548-3.537,10.865-13.402,7.809-22.971 c-2.341-7.327-9.548-11.036-18.278-9.521c-1.682,0.295-2.092,1.092-2.058,2.649c0.08,4.688,0.021,9.375,0.021,14.063H781.615z"></path> <path fill="#3E3E40" d="M393.621,104.035c1.796-2.037,3.012-3.561,4.388-4.938c5.717-5.677,16.403-7.293,23.53-3.504 c5.911,3.14,7.593,8.749,8.173,14.802c0.898,9.363,0.398,18.761,0.354,28.147c-0.013,2.833,0.25,4.881,3.647,5.143 c0.818,0.068,1.604,0.66,2.398,1.024c1.817,0.819,1.067,2.48,1.058,3.755c0,1.456-1.376,1.08-2.285,1.092 c-8.003,0.023-15.994,0.034-23.996-0.023c-1.046,0-2.626,0.694-2.784-1.263c-0.125-1.524-0.272-3.106,1.717-3.72 c0.83-0.262,1.567-0.785,2.397-1.036c1.489-0.443,1.989-1.354,1.979-2.901c-0.08-8.51,0-17.032-0.114-25.542 c-0.023-1.946-0.352-3.925-0.83-5.814c-1.455-5.666-5.706-7.953-11.253-6.201c-4.308,1.366-8.321,6.588-8.354,11.162 c-0.058,8.624,0.046,17.248-0.067,25.872c-0.023,1.979,0.613,2.992,2.512,3.447c0.83,0.205,1.558,0.774,2.341,1.138 c1.774,0.819,1.194,2.423,1.16,3.743c-0.046,1.809-1.568,1.126-2.501,1.138c-8.002,0.045-15.994,0.057-23.996,0 c-0.932,0-2.467,0.603-2.535-1.149c-0.057-1.4-0.671-3.402,1.569-3.698c5.729-0.762,5.809-4.528,5.672-9.113 c-0.296-9.819-0.227-19.649,0-29.468c0.068-2.958-0.978-3.823-3.66-3.857c-1.896-0.022-4.058,0.103-3.692-3.015 c0.158-1.32,0.579-1.923,1.807-2.275c6.229-1.752,12.492-3.152,19.018-3.277c1.954-0.034,2.454,0.671,2.376,2.458 c-0.104,2.367-0.022,4.745-0.022,7.884v-0.011H393.621z"></path> <path fill="#3E3E40" d="M694.134,138.736c-6.218,10.57-13.425,13.926-23.905,11.514c-6.08-1.4-9.844-5.666-10.969-12.754 c-1.421-8.909-0.613-17.863-0.285-26.794c0.035-0.876,0.114-1.741,0.126-2.617c0.055-3.413-1.592-5.377-4.934-5.893 c-1.25-0.194-2.421-0.273-2.251-2.059c0.114-1.263-0.341-2.605,1.535-3.095c6.148-1.593,12.322-2.958,18.699-3.356 c2.387-0.148,2.921,0.785,2.897,2.992c-0.114,10.695-1.021,21.378-0.568,32.073c0.104,2.389,0.297,4.824,0.888,7.133 c1.521,5.996,7.514,8.135,12.538,4.426c3.592-2.639,5.718-6.28,5.729-10.877c0.023-7.645-0.146-15.291,0.068-22.937 c0.091-3.06-0.75-4.459-3.922-4.255c-2.229,0.148-3.444-0.728-3.126-3.242c0.146-1.194,0.612-1.672,1.706-1.991 c5.897-1.729,11.89-2.856,18.026-3.311c2.58-0.193,3.354,0.603,3.33,3.22c-0.125,13.54,0.059,27.089-0.146,40.628 c-0.046,3.3,0.807,4.79,4.205,4.767c1.183,0,2.967-0.625,3.161,1.764c0.157,2.037-0.694,2.89-2.503,3.459 c-5.252,1.638-10.615,2.594-16.071,3.22c-2.515,0.284-3.865-0.239-3.672-3.243c0.171-2.696-0.309-5.438-0.548-8.772H694.134 L694.134,138.736z"></path> <path fill="#3E3E40" d="M997.273,220.527c0-9.055-0.139-18.123,0.077-27.168c0.069-2.856-0.795-4.107-3.579-4.506 c-1.468-0.218-2.83-1.08-4.253-1.627c-2-0.773-1.466-2.504-1.352-3.927c0.136-1.704,1.659-1.079,2.604-1.092 c10.299-0.058,20.599-0.058,30.889-0.022c0.95,0,2.438-0.545,2.52,1.207c0.062,1.434,0.562,3.084-1.488,3.855 c-2.25,0.854-4.49,1.786-6.882,2.094c-1.698,0.217-2.118,1.001-2.118,2.582c0.028,18.989,0.039,37.979,0,56.969 c0,1.797,0.47,2.479,2.38,2.444c5.479-0.103,10.96-0.067,16.43,0.034c1.7,0.034,2.5-0.569,3.08-2.186 c1.819-5.131,3.938-10.16,5.68-15.313c0.74-2.186,2.13-2.016,3.812-2.037c2.06-0.021,1.83,1.502,1.99,2.721 c0.938,7.03,1.148,14.118,1.538,21.194c0.12,2.267-0.72,2.959-3.05,2.947c-18.068-0.103-36.148-0.034-54.222-0.103 c-1.104,0-2.842,0.875-3.185-1.219c-0.296-1.831-0.146-3.504,2.148-4.05c0.637-0.147,1.205-0.501,1.83-0.728 c3.44-1.229,5.165-3.627,5.172-7.191c0-8.294,0-16.588,0-24.883h-0.021V220.527z"></path> <path fill="#3E3E40" d="M496.346,229.05c0.068,11.832-2.66,20.343-11.219,26.122c-13.016,8.807-34.511,5.508-42.593-6.52 c-8.901-13.231-4.843-34.245,8.298-42.051c10.742-6.384,31.248-5.541,39.671,5.166c4.49,5.699,5.843,12.287,5.832,17.271 L496.346,229.05z M455.163,231.075c0.136,5.45,0.068,10.934,2.705,15.962c2.285,4.357,6.502,6.531,11.754,6.064 c3.842-0.354,6.774-3.176,8.093-7.953c1.501-5.416,1.729-10.967,1.466-16.553c-0.204-4.484-0.5-8.968-2.557-13.063 c-2.126-4.222-5.797-6.179-10.435-6.089c-4.549,0.08-7.425,2.572-9.026,6.806C455.345,221.063,455.299,226.057,455.163,231.075z"></path> <path fill="#3E3E40" d="M579.928,232.463c-4.817,0-9.648,0.068-14.47-0.033c-1.955-0.047-2.353,0.717-2.239,2.514 c0.729,10.82,9.287,17.716,20.063,15.939c3.114-0.512,6.309-1.023,9.023-2.787c1.148-0.75,1.797-0.695,2.729,0.217 c1.067,1.045,0.671,1.81-0.045,2.811c-3.547,4.982-8.844,7.021-14.459,8.294c-4.64,1.047-9.391,0.91-14.039-0.103 c-12.162-2.641-19.471-11.39-20.349-24.438c-0.5-7.396,0-14.745,4.24-21.128c6.561-9.889,16.574-11.707,27.463-10.82 c3.706,0.309,7.4,1.104,10.629,3.118c6.253,3.892,8.641,9.864,8.936,16.906c0.265,6.341-2.713,9.512-8.936,9.512 C585.623,232.463,582.782,232.463,579.928,232.463z M572.347,226.639c2.193,0,4.389-0.047,6.581,0.021 c1.33,0.046,2.046-0.352,2.069-1.809c0.045-3.492,0.307-7.01-0.818-10.389c-1.001-3.015-2.842-5.145-6.273-5.382 c-3.706-0.25-6.311,1.265-7.878,4.644c-1.068,2.299-1.672,4.731-2.034,7.225c-0.83,5.699-0.819,5.699,5.067,5.699 c1.094,0,2.194,0,3.286,0V226.639z"></path> <path fill="#3E3E40" d="M347.698,73.145c4.933,0,9.854-0.022,14.789,0.023c0.977,0,2.421-0.466,2.455,1.286 c0.032,1.342,0.545,2.936-1.251,3.686c-1.104,0.467-2.193,1.195-3.343,1.309c-3.922,0.41-4.468,2.617-4.422,6.155 c0.204,17.782,0.138,35.578,0.034,53.359c-0.012,2.333,0.511,3.562,2.989,3.983c1.683,0.284,3.272,1.16,4.865,1.865 c1.592,0.706,1.183,2.185,1.126,3.448c-0.093,1.684-1.455,1.297-2.479,1.297c-9.753,0.023-19.495,0.034-29.248,0 c-0.955,0-2.432,0.569-2.557-1.161c-0.091-1.342-0.513-2.924,1.271-3.675c1.514-0.625,2.979-1.513,4.547-1.797 c2.639-0.455,3.059-1.843,3.035-4.278c-0.126-13.528-0.057-27.067-0.057-40.595c0-4.688-0.114-9.386,0.045-14.074 c0.08-2.253-0.329-3.664-2.864-4.016c-1.376-0.193-2.647-1.001-4.013-1.411c-2.307-0.683-2.182-2.514-1.955-4.244 c0.239-1.877,1.854-1.126,2.899-1.138c4.705-0.068,9.423-0.034,14.129-0.034v0.012H347.698z"></path> <path fill="#3E3E40" d="M743.74,93.727c6.193,0,11.447,0.785,16.606,2.48c2.068,0.683,2.934,1.513,2.205,3.709 c-1.16,3.516-2.239,7.054-3.263,10.615c-0.397,1.354-1.284,1.525-2.489,1.525c-1.171,0-2.112-0.08-2.612-1.377 c-0.923-2.446-2.149-4.801-2.89-7.293c-1.08-3.663-4.035-3.14-6.661-3.242c-2.658-0.103-5.058,0.705-6.206,3.367 c-1.137,2.64-0.817,5.154,1.284,7.236c2.194,2.173,4.786,3.789,7.516,5.223c3.772,1.979,7.673,3.72,11.069,6.36 c5.061,3.936,7.628,8.863,6.412,15.393c-1.205,6.497-5.661,9.967-11.538,11.673c-9.924,2.89-19.699,1.616-29.327-1.672 c-1.751-0.603-1.967-1.525-1.705-3.22c0.648-4.175,2.354-7.93,4.33-11.582c1.274-2.332,4.036-2.23,5.252,0.182 c1.319,2.628,2.694,5.256,3.649,8.021c1.046,3.026,3.308,3.504,5.945,3.482c3.467-0.023,6.648-0.99,8.239-4.301 c1.218-2.526,0.718-5.165-1.262-7.293c-2.646-2.844-6.104-4.574-9.503-6.314c-4.99-2.549-9.912-5.132-13.208-9.91 c-4.99-7.236-2.967-15.917,4.694-20.172c4.456-2.469,9.274-3.129,13.48-2.878L743.74,93.727z"></path> <path fill="#3E3E40" d="M1056.73,230.904c0-6.463-0.102-11.582,0.05-16.713c0.068-2.266-0.58-3.231-2.91-2.914 c-0.97,0.125-1.99,0.147-2.94,0c-1.02-0.158-2.71,0.854-2.869-1.092c-0.12-1.615-0.761-3.572,1.551-4.449 c0.8-0.307,1.529-1,2.35-1.114c4.47-0.647,5.5-3.413,4.76-7.338c-0.529-2.822,0.83-4.153,3.45-4.87 c3.16-0.854,6.26-1.889,9.521-2.309c2.199-0.285,3.221,0.295,3.061,2.742c-0.188,3.036,0,6.107-0.07,9.157 c-0.028,1.547,0.552,2.104,2.12,2.06c3.28-0.104,6.57,0.022,9.852-0.08c1.789-0.058,2.479,0.49,2.528,2.4 c0.102,4.938,0.2,4.848-4.81,4.973c-3.13,0.08-7.13-1.387-9.12,0.66c-1.83,1.889-0.49,5.824-0.52,8.852 c-0.08,6.656-0.15,13.313,0,19.956c0.198,9.091,3.238,11.457,12.17,9.829c0.539-0.103,1.08-0.203,1.619-0.26 c0.949-0.092,2.211-1.207,2.689,0.545c0.352,1.319,0.891,2.742-0.82,3.754c-6.35,3.756-13.078,6.179-20.568,5.098 c-6.86-0.989-9.971-4.573-10.771-11.559c-0.699-6.201-0.13-12.424-0.33-17.307L1056.73,230.904z"></path> <path fill="#3E3E40" d="M893.809,230.995c0-6.063-0.077-11.524,0.034-16.986c0.046-2.151-0.691-3.004-2.842-2.731 c-0.966,0.125-1.989,0.148-2.955,0c-1.021-0.157-2.683,0.82-2.876-1.113c-0.17-1.661-0.75-3.823,1.604-4.403 c5.717-1.397,8.319-4.663,7.082-10.614c-0.218-1.023,0.566-1.604,1.432-1.935c3.887-1.489,7.832-2.753,12.015-3.129 c1.819-0.159,2.569,0.455,2.489,2.378c-0.136,3.049,0.023,6.121-0.079,9.17c-0.057,1.821,0.534,2.503,2.444,2.412 c3.285-0.146,6.568-0.045,9.865-0.034c3.819,0,1.854,2.925,2.229,4.574c0.387,1.718-0.079,2.892-2.341,2.774 c-3.274-0.17-6.571,0.023-9.867-0.08c-1.637-0.045-2.353,0.41-2.33,2.175c0.113,9.604,0,19.217,0.229,28.817 c0.157,7.078,2.887,9.309,9.979,8.693c1.41-0.126,2.809-0.456,4.218-0.626c0.763-0.091,1.843-0.967,2.159,0.421 c0.262,1.16,1.001,2.299-0.352,3.572c-5.115,4.813-18.96,7.305-25.235,4.301c-4.285-2.048-6.104-5.734-6.559-10.251 c-0.604-5.996-0.159-12.003-0.318-17.396L893.809,230.995z"></path> <path fill="#3E3E40" d="M621.953,228.083c-0.229,2.742,0.057,5.449,0.466,8.146c1.932,12.642,12.788,18.33,24.382,12.879 c1.138-0.533,2.331-2.502,3.899-0.455c1.442,1.877-0.068,3.117-1.046,4.257c-4.796,5.573-11.276,7.384-18.278,7.12 c-16.221-0.612-24.78-8.475-26.406-24.586c-1.534-15.198,4.06-28.625,20.529-31.959c6.536-1.318,13.084-1.252,19.483,0.625 c8.615,2.526,6.468,1.641,5.456,9c-0.308,2.254-1.079,4.438-1.672,6.646c-0.512,1.935-0.966,3.527-3.763,3.517 c-2.705-0.012-3.558-1.125-4.183-3.401c-0.75-2.72-2-5.302-2.809-8.011c-0.612-2.047-1.942-2.672-3.877-2.797 c-5.443-0.344-9.207,2.377-10.764,8.008c-0.489,1.774-0.785,3.631-1.012,5.461c-0.229,1.832-0.264,3.699-0.389,5.541 L621.953,228.083z"></path> <path fill="#3E3E40" d="M508.622,229.971c0-5.347-0.113-10.705,0.057-16.053c0.068-2.219-0.691-2.879-2.751-2.629 c-0.977,0.113-1.987,0.126-2.955,0c-1.125-0.159-2.887,0.854-3.103-1.309c-0.171-1.717-0.512-3.789,1.796-4.322 c5.774-1.344,8.32-4.62,6.968-10.57c-0.239-1.047,0.591-1.536,1.466-1.877c3.569-1.4,7.23-2.492,11.038-3.072 c2.375-0.353,3.671,0.159,3.398,3.016c-0.272,2.925,0.021,5.894-0.091,8.841c-0.068,1.627,0.58,2.094,2.092,2.06 c3.285-0.078,6.582,0.068,9.867-0.092c2.012-0.091,2.637,0.535,2.626,2.572c-0.035,4.777,0.079,4.676-4.581,4.813 c-3.24,0.104-7.548-1.49-9.401,0.684c-1.591,1.877-0.58,6.041-0.534,9.193c0.092,7.314-0.41,14.631,0.329,21.935 c0.66,6.542,2.842,8.329,9.446,7.851c1.421-0.104,2.808-0.432,4.229-0.604c0.934-0.113,2.139-1.172,2.58,0.705 c0.296,1.287,0.809,2.492-0.75,3.437c-7.252,4.427-14.914,6.976-23.428,4.619c-5.217-1.444-8.025-5.927-8.241-12.81 c-0.17-5.451-0.034-10.924-0.034-16.385h-0.022V229.971z"></path> <path fill="#3E3E40" d="M857.787,244.58c1.818-6.225,3.876-12.266,5.956-18.307c1.489-4.323,2.83-8.703,4.365-13.017 c0.602-1.694,0.387-2.649-1.5-3.104c-0.935-0.229-1.81-0.762-2.674-1.24c-1.646-0.934-0.92-2.572-0.907-3.857 c0.011-1.468,1.421-1.022,2.317-1.035c5.479-0.035,10.958-0.021,16.438,0.022c0.896,0,2.237-0.421,2.307,1.069 c0.068,1.41,0.796,3.516-1.271,3.902c-5.185,0.957-6.195,5.131-7.752,9.045c-5.015,12.676-10.096,25.314-15.164,37.967 c-0.934,2.32-6.799,4.768-9.071,3.8c-0.807-0.341-0.921-1.194-1.216-1.854c-6.525-14.643-13.073-29.272-19.474-43.962 c-1.001-2.298-2.433-3.687-4.763-4.392c-1.512-0.455-2.66-1.195-2.558-3.208c0.091-1.775,0.466-2.447,2.409-2.425 c8.004,0.115,15.993,0.022,23.995,0.07c0.955,0,2.41-0.594,2.604,1.113c0.171,1.501,0.296,2.979-1.557,3.879 c-1.489,0.729-3.924,0.809-4.16,2.561c-0.217,1.537,1,3.266,1.566,4.916c3.229,9.375,7.095,18.521,10.142,28.09L857.787,244.58z"></path> <path fill="#3E3E40" d="M448.138,121.363c0-5.462-0.08-10.923,0.045-16.384c0.046-2.059-0.441-3.083-2.704-2.742 c-0.967,0.148-1.988,0.148-2.943-0.011c-1.091-0.194-2.921,0.956-3.06-1.263c-0.102-1.661-0.511-3.595,1.739-4.392 c0.104-0.034,0.205-0.103,0.309-0.125c5.273-1.252,7.898-4.232,6.639-9.876c-0.285-1.263,0.432-2.082,1.58-2.514 c3.91-1.457,7.877-2.571,12.071-2.924c1.908-0.159,2.192,0.671,2.138,2.264c-0.091,2.731,0.216,5.484-0.104,8.181 c-0.352,3.083,0.91,3.698,3.661,3.481c2.83-0.228,5.694,0.023,8.548-0.091c1.75-0.068,2.684,0.353,2.389,2.298 c-0.114,0.751-0.104,1.536,0,2.287c0.261,2.037-0.342,2.901-2.639,2.742c-3.272-0.227-6.569,0.011-9.854-0.08 c-1.568-0.045-2.059,0.478-2.046,2.048c0.102,9.387,0.066,18.784,0.171,28.171c0.021,1.615,0.386,3.254,0.784,4.835 c0.737,3.027,2.705,4.631,5.888,4.699c2.524,0.057,5.036-0.068,7.525-0.592c0.887-0.182,1.987-0.967,2.363,0.603 c0.272,1.127,0.863,2.356-0.421,3.3c-5.956,4.369-17.856,7.793-25.553,4.153c-4.865-2.31-6.252-6.827-6.435-11.696 c-0.204-5.45-0.047-10.923-0.047-16.384c0,0-0.021,0-0.032,0L448.138,121.363z"></path> <path fill="#3E3E40" d="M424.938,227.366c0,7.088,0.113,14.176-0.057,21.264c-0.057,2.378,0.557,3.481,2.989,4.05 c1.887,0.444,4.581,0.444,4.377,3.766c-0.104,1.72-0.614,2.23-2.308,2.221c-8.65-0.066-17.289-0.034-25.94-0.046 c-0.932,0-2.182,0.285-2.137-1.251c0.046-1.229-0.591-2.686,0.921-3.538c0.284-0.16,0.591-0.342,0.909-0.376 c5.082-0.535,5.398-3.768,5.273-8.021c-0.307-10.24-0.159-20.502-0.057-30.754c0.021-2.173-0.559-3.072-2.831-3.229 c-1.375-0.104-3.512,0.522-4.059-1.14c-0.546-1.66-0.967-3.811,1.968-4.562c5.956-1.513,12.004-2.39,18.062-3.197 c2.274-0.308,2.979,0.58,2.935,2.89c-0.148,7.306-0.059,14.619-0.059,21.926L424.938,227.366L424.938,227.366z"></path> <path fill="#3E3E40" d="M508.634,118.348c0,6.542,0.238,13.106-0.103,19.626c-0.183,3.481,0.603,5.461,4.24,6.052 c1.875,0.307,3.5,1.093,3.158,3.664c-0.17,1.331-0.42,1.911-1.887,1.911c-8.866-0.045-17.731-0.023-26.599-0.034 c-0.864,0-1.921,0.125-1.943-1.149c-0.012-1.138-0.501-2.458,0.716-3.322c0.523-0.376,1.148-0.751,1.773-0.819 c4.318-0.547,4.943-3.152,4.842-7.043c-0.284-10.353-0.193-20.718-0.022-31.083c0.047-2.844-0.842-3.925-3.638-3.891 c-1.909,0.023-4.137,0.171-3.751-3.003c0.159-1.286,0.591-1.946,1.83-2.287c6.241-1.684,12.515-3.049,19.017-3.276 c1.889-0.068,2.424,0.523,2.389,2.389c-0.104,7.418-0.045,14.836-0.045,22.254L508.634,118.348z"></path> <path fill="#3E3E40" d="M944.154,259.587c-5.685,0.022-9.355-3.379-9.366-8.681c0-5.428,3.535-8.863,9.162-8.897 c5.751-0.034,9.523,3.481,9.537,8.897C953.498,256.128,949.804,259.564,944.154,259.587z"></path> <path fill="#3E3E40" d="M1172.62,259.598c-5.55,0.057-9.44-3.48-9.49-8.613c-0.04-5.211,3.69-8.873,9.17-8.977 c5.66-0.113,9.641,3.506,9.7,8.818c0.05,5.107-3.811,8.715-9.38,8.783V259.598z"></path> <path fill="#3E3E40" d="M416.617,194.223c-6.286-0.033-9.742-3.424-9.276-9.113c0.398-4.892,5.149-7.814,11.345-6.984 c5.344,0.729,8.22,4.77,7.115,10.014c-0.841,3.992-4.035,6.098-9.184,6.074V194.223z"></path> <path fill="#3E3E40" d="M500.438,85.308c-5.784-0.034-9.389-3.208-9.319-8.226c0.057-4.961,3.797-8.181,9.469-8.169 c5.593,0,9.412,3.401,9.332,8.294C509.839,82.19,506.144,85.342,500.438,85.308z"></path> <path fill="#FEFEFE" d="M1131.97,249.357c-0.03,0.092-0.068,0.16-0.108,0.24c-0.11-0.068-0.222-0.148-0.33-0.218 c0.068-0.08,0.14-0.157,0.22-0.228c0.08,0.068,0.14,0.146,0.22,0.217L1131.97,249.357L1131.97,249.357z"></path> </g> </svg>