<svg width="152" height="69" viewBox="0 0 152 69" fill="none" xmlns="http://www.w3.org/2000/svg">
<g clip-path="url(#clip0_58_460)">
<path d="M61.8249 16.9166C66.065 16.9166 69.8543 18.8433 72.3866 21.8715C70.373 17.3284 66.0129 14.0818 60.8517 13.6836C61.2503 14.7104 61.5448 15.7931 61.692 16.9227C61.7373 16.9211 61.7803 16.9166 61.8249 16.9166Z" fill="#F4D1A8"/>
<path d="M15.4271 17.1465C16.2154 10.2293 22.0462 4.85432 29.1326 4.85432C32.7899 4.85432 36.1066 6.29592 38.5769 8.63209C41.0465 6.29516 44.3633 4.85432 48.0212 4.85432C52.2681 4.85432 56.0544 6.79307 58.5829 9.83041C56.4372 4.96538 51.6098 1.56689 45.979 1.56689C42.321 1.56689 39.005 3.00849 36.5339 5.34543C34.0643 3.00849 30.7483 1.56689 27.0904 1.56689C20.0039 1.56689 14.1723 6.94192 13.3849 13.859C6.92885 15.0211 2.02588 20.6877 2.02588 27.518C2.02588 30.921 3.24747 34.0354 5.26709 36.4509C4.50152 34.7245 4.06815 32.8167 4.06815 30.8046C4.06815 23.9744 8.97112 18.3093 15.4271 17.1465Z" fill="#040404"/>
<path d="M40.8177 56.4482H34.7928V68.0339H40.8177V56.4482Z" fill="black"/>
<path d="M59.7834 13.6286C59.7381 13.6286 59.695 13.6354 59.6505 13.6354C58.7626 6.82707 52.9876 1.56689 45.979 1.56689C42.321 1.56689 39.005 3.00849 36.5347 5.34543C34.0643 3.00849 30.7468 1.56689 27.0896 1.56689C20.0032 1.56689 14.1723 6.94192 13.3841 13.859C6.92885 15.0218 2.02588 20.6877 2.02588 27.518C2.02588 35.1891 8.20555 41.4066 15.8288 41.4066C17.8024 41.4066 19.6717 40.9774 21.3682 40.2272V55.4871L37.8061 38.9472L54.2432 55.4871V40.2256C55.9404 40.9782 57.809 41.4073 59.7834 41.4073C67.4066 41.4073 73.587 35.1891 73.587 27.5172C73.587 19.8468 67.4059 13.6286 59.7834 13.6286Z" fill="#FFEACE"/>
<path d="M4.62683 34.9335C4.62683 34.9335 14.8118 43.1162 24.7755 34.7129V52.2599L21.258 56.2402L21.3682 40.2277C21.3682 40.2277 10.1225 45.6979 4.62683 34.9335Z" fill="#D88E2E"/>
<path d="M54.2432 40.2257C54.2432 40.2257 70.4492 39.4565 71.4179 20.208C71.4179 20.208 80.4167 44.1614 54.2432 40.2257Z" fill="#D88E2E"/>
<path d="M55.7698 59.1929L37.8068 41.1185L19.8431 59.1929V42.3969C18.5362 42.7573 17.193 42.9417 15.8295 42.9417C7.37579 42.9409 0.5 36.0216 0.5 27.5178C0.5 20.4193 5.28821 14.3076 12.0326 12.585C13.3826 5.35582 19.671 0.0336914 27.0903 0.0336914C30.5347 0.0336914 33.84 1.19271 36.5346 3.32338C39.2285 1.19271 42.5339 0.0336914 45.9789 0.0336914C53.199 0.0336914 59.4134 5.15258 60.9385 12.1384C68.8532 12.7346 75.1129 19.4046 75.1129 27.517C75.1129 36.0208 68.2356 42.9387 59.7826 42.9387C58.4191 42.9387 57.0767 42.7558 55.7698 42.3954V59.1929ZM22.8948 37.8764V51.7817L37.8061 36.7786L52.7173 51.7817V37.8749L54.8585 38.8239C56.4327 39.5205 58.0891 39.8749 59.7826 39.8749C66.5527 39.8749 72.0596 34.3321 72.0596 27.5185C72.0596 20.717 66.57 15.1818 59.8166 15.1622C59.763 15.166 59.7154 15.169 59.6693 15.1697L58.3134 15.1856L58.1375 13.8354C57.3402 7.71618 52.1133 3.10049 45.9789 3.10049C42.8547 3.10049 39.874 4.29427 37.5818 6.46196L36.5346 7.45325L35.489 6.46196C33.1975 4.29427 30.2153 3.10049 27.0911 3.10049C20.8525 3.10049 15.6121 7.8008 14.9016 14.0341L14.7725 15.1675L13.6551 15.3684C7.80009 16.4217 3.55322 21.5323 3.55322 27.5178C3.55322 34.3306 9.05943 39.8734 15.8295 39.8734C17.5222 39.8734 19.1795 39.522 20.7529 38.8239L22.8948 37.8764Z" fill="black"/>
<path d="M87.7795 21.4083V5.60205H90.0165L95.0275 13.5989C96.1706 15.4515 97.1022 17.116 97.8248 18.7336L97.895 18.7109C97.7077 16.6007 97.6617 14.677 97.6617 12.2147V5.60205H99.5726V21.4083H97.5212L92.5345 13.3881C91.4375 11.6291 90.3888 9.82334 89.6209 8.11125L89.55 8.13467C89.6662 10.1286 89.6904 12.0273 89.6904 14.6536V21.4068H87.7795V21.4083Z" fill="#040404"/>
<path d="M105.33 6.86764C105.33 7.57106 104.841 8.13395 104.024 8.13395C103.28 8.13395 102.79 7.57106 102.79 6.86764C102.79 6.16422 103.303 5.57715 104.071 5.57715C104.817 5.5779 105.33 6.14079 105.33 6.86764ZM103.046 21.4083V10.0576H105.095V21.4075H103.046V21.4083Z" fill="#040404"/>
<path d="M110.528 15.2633H110.574C110.854 14.8651 111.227 14.3718 111.553 13.9728L114.884 10.0568H117.332L112.998 14.7239L117.961 21.4083H115.444L111.575 15.9667L110.526 17.1394V21.4083H108.498V4.75732H110.526V15.2633H110.528Z" fill="#040404"/>
<path d="M121.714 6.86764C121.714 7.57106 121.224 8.13395 120.409 8.13395C119.662 8.13395 119.172 7.57106 119.172 6.86764C119.172 6.16422 119.687 5.57715 120.455 5.57715C121.201 5.5779 121.714 6.14079 121.714 6.86764ZM119.428 21.4083V10.0576H121.481V21.4075H119.428V21.4083Z" fill="#040404"/>
<path d="M127.354 7.3374V10.0574H130.291V11.629H127.354V17.749C127.354 19.1558 127.75 19.9529 128.892 19.9529C129.452 19.9529 129.778 19.9061 130.081 19.8131L130.174 21.3847C129.778 21.5245 129.15 21.6658 128.357 21.6658C127.4 21.6658 126.633 21.3371 126.143 20.7976C125.583 20.1645 125.35 19.1558 125.35 17.82V11.6297H123.602V10.0582H125.35V7.94789L127.354 7.3374Z" fill="#040404"/>
<path d="M140.987 18.687C140.987 19.6715 141.035 20.6333 141.153 21.407H139.311L139.147 19.9767H139.077C138.448 20.8683 137.237 21.6654 135.628 21.6654C133.344 21.6654 132.178 20.047 132.178 18.4052C132.178 15.6617 134.603 14.1604 138.961 14.1839V13.9496C138.961 13.0347 138.705 11.3226 136.396 11.346C135.324 11.346 134.229 11.6505 133.437 12.19L132.971 10.8058C133.903 10.2202 135.278 9.82129 136.7 9.82129C140.15 9.82129 140.988 12.1892 140.988 14.4415L140.987 18.687ZM139.008 15.6164C136.77 15.5688 134.229 15.967 134.229 18.1717C134.229 19.5324 135.116 20.1414 136.141 20.1414C137.633 20.1414 138.588 19.2038 138.915 18.242C138.986 18.007 139.008 17.772 139.008 17.5854V15.6164Z" fill="#040404"/>
<path d="M144.648 5.17969C144.114 7.14942 143.11 9.68204 142.481 10.7617L141.175 10.9023C141.665 9.51884 142.294 7.10409 142.549 5.41391L144.648 5.17969Z" fill="#040404"/>
<path d="M144.624 19.3198C145.254 19.6953 146.326 20.1177 147.351 20.1177C148.819 20.1177 149.519 19.3908 149.519 18.429C149.519 17.4445 148.937 16.9285 147.445 16.3656C145.394 15.6153 144.438 14.513 144.438 13.153C144.438 11.3238 145.93 9.82324 148.331 9.82324C149.474 9.82324 150.475 10.1277 151.081 10.5267L150.592 12.028C150.149 11.7454 149.333 11.3472 148.284 11.3472C147.072 11.3472 146.419 12.0506 146.419 12.8946C146.419 13.833 147.071 14.2546 148.541 14.8409C150.475 15.5677 151.501 16.553 151.501 18.2409C151.501 20.2575 149.939 21.6651 147.304 21.6651C146.069 21.6651 144.927 21.3364 144.135 20.8672L144.624 19.3198Z" fill="#040404"/>
<path d="M100.149 42.3448C99.3265 42.771 97.6013 43.1994 95.4231 43.1994C90.3782 43.1994 86.6093 39.9943 86.6093 34.064C86.6093 28.4003 90.4061 24.6074 95.9539 24.6074C98.1585 24.6074 99.5915 25.0887 100.201 25.4091L99.6172 27.3055C98.7678 26.8786 97.5205 26.559 96.0354 26.559C91.8399 26.559 89.0532 29.2564 89.0532 33.9846C89.0532 38.4197 91.5734 41.2221 95.901 41.2221C97.334 41.2221 98.7678 40.9297 99.6964 40.4756L100.149 42.3448Z" fill="#040404"/>
<path d="M113.739 39.3538C113.739 40.716 113.766 41.8917 113.846 42.9071H111.776L111.643 40.7954H111.59C111.006 41.8388 109.625 43.201 107.342 43.201C105.324 43.201 102.909 42.0519 102.909 37.5374V29.9766H105.246V37.1075C105.246 39.5661 106.015 41.2494 108.112 41.2494C109.679 41.2494 110.768 40.1531 111.192 39.0863C111.325 38.7644 111.404 38.3383 111.404 37.8835V29.9766H113.74V39.3538H113.739Z" fill="#040404"/>
<path d="M117.613 34.0111C117.613 32.4879 117.588 31.1793 117.508 29.9765H119.551L119.658 32.5416H119.738C120.321 30.8053 121.755 29.709 123.321 29.709C123.56 29.709 123.746 29.7362 123.959 29.7619V31.9794C123.72 31.9265 123.48 31.9265 123.163 31.9265C121.515 31.9265 120.347 33.1543 120.029 34.9185C119.977 35.2389 119.95 35.6386 119.95 36.0133V42.9048H117.613V34.0111Z" fill="#040404"/>
<path d="M126.294 34.0111C126.294 32.4879 126.267 31.1793 126.187 29.9765H128.232L128.339 32.5416H128.417C129.001 30.8053 130.436 29.709 132.001 29.709C132.239 29.709 132.426 29.7362 132.638 29.7619V31.9794C132.399 31.9265 132.161 31.9265 131.841 31.9265C130.195 31.9265 129.027 33.1543 128.709 34.9185C128.657 35.2389 128.63 35.6386 128.63 36.0133V42.9048H126.294V34.0111Z" fill="#040404"/>
<path d="M135.822 29.9766L138.61 37.6167C138.929 38.4713 139.247 39.4867 139.46 40.2612H139.512C139.751 39.4867 140.017 38.4992 140.335 37.5639L142.883 29.9766H145.353L141.848 39.1928C140.175 43.6272 139.033 45.8719 137.44 47.2871C136.273 48.2761 135.159 48.6758 134.574 48.7823L133.99 46.833C134.574 46.6471 135.344 46.2724 136.035 45.6846C136.672 45.1768 137.441 44.2679 137.999 43.0666C138.106 42.8263 138.185 42.6389 138.185 42.5059C138.185 42.373 138.133 42.1841 137.999 41.8917L133.274 29.9773H135.822L135.822 29.9766Z" fill="#040404"/>
<path d="M97.8489 61.9966C97.1883 62.3419 95.7991 62.6857 94.0475 62.6857C89.9894 62.6857 86.9543 60.1047 86.9543 55.3326C86.9543 50.7759 90.0083 47.7227 94.4733 47.7227C96.2461 47.7227 97.4005 48.1095 97.8912 48.3679L97.4208 49.8941C96.7368 49.5503 95.7327 49.2919 94.5367 49.2919C91.1611 49.2919 88.9188 51.4642 88.9188 55.2684C88.9188 58.8384 90.9482 61.0945 94.431 61.0945C95.5839 61.0945 96.7376 60.858 97.485 60.4923L97.8489 61.9966Z" fill="#040404"/>
<path d="M109.494 57.1586C109.494 61.0074 106.824 62.6847 104.345 62.6847C101.568 62.6847 99.3899 60.6206 99.3899 57.3309C99.3899 53.8689 101.674 51.8267 104.517 51.8267C107.486 51.8274 109.494 53.9996 109.494 57.1586ZM101.311 57.2667C101.311 59.5454 102.593 61.2658 104.43 61.2658C106.225 61.2658 107.57 59.5673 107.57 57.2236C107.57 55.4616 106.695 53.2463 104.473 53.2463C102.273 53.2471 101.311 55.3098 101.311 57.2667Z" fill="#040404"/>
<path d="M111.867 55.2893C111.867 54.0631 111.845 53.0106 111.782 52.0427H113.428L113.511 54.1069H113.575C114.045 52.7091 115.2 51.8281 116.459 51.8281C116.651 51.8281 116.801 51.8485 116.973 51.8712V53.6551C116.78 53.612 116.587 53.612 116.332 53.612C115.008 53.612 114.067 54.601 113.81 56.0192C113.767 56.2791 113.747 56.5995 113.747 56.9017V62.449H111.867V55.2893Z" fill="#040404"/>
<path d="M118.852 54.8597C118.852 53.7634 118.832 52.9028 118.768 52.0423H120.433L120.54 53.7627H120.584C121.096 52.7948 122.294 51.8262 124.001 51.8262C125.434 51.8262 127.655 52.6867 127.655 56.256V62.4478H125.775V56.4509C125.775 54.7728 125.157 53.3758 123.382 53.3758C122.164 53.3758 121.204 54.2583 120.863 55.3123C120.777 55.5488 120.734 55.8699 120.734 56.1933V62.45H118.855V54.8597H118.852Z" fill="#040404"/>
<path d="M131.757 57.5903C131.8 60.1478 133.402 61.2026 135.303 61.2026C136.648 61.2026 137.482 60.9653 138.165 60.6654L138.507 62.0186C137.847 62.3193 136.691 62.6857 135.046 62.6857C131.863 62.6857 129.963 60.5581 129.963 57.4172C129.963 54.2787 131.8 51.8276 134.812 51.8276C138.209 51.8276 139.084 54.7955 139.084 56.7078C139.084 57.0961 139.063 57.3749 139.02 57.5903H131.757ZM137.267 56.2355C137.289 55.0539 136.777 53.1823 134.661 53.1823C132.74 53.1823 131.927 54.9239 131.778 56.2355H137.267Z" fill="#040404"/>
<path d="M141.414 55.2893C141.414 54.0631 141.394 53.0106 141.329 52.0427H142.975L143.059 54.1069H143.123C143.594 52.7091 144.748 51.8281 146.007 51.8281C146.199 51.8281 146.349 51.8485 146.519 51.8712V53.6551C146.327 53.612 146.134 53.612 145.879 53.612C144.555 53.612 143.616 54.601 143.358 56.0192C143.314 56.2791 143.295 56.5995 143.295 56.9017V62.449H141.415V55.2886L141.414 55.2893Z" fill="#040404"/>
</g>
<defs>
<clipPath id="clip0_58_460">
<rect width="151" height="68" fill="white" transform="translate(0.5 0.0336914)"/>
</clipPath>
</defs>
</svg>
