<?xml version="1.0" encoding="utf-8"?>
<!-- Generator: Adobe Illustrator 15.0.0, SVG Export Plug-In . SVG Version: 6.00 Build 0)  -->
<!DOCTYPE svg PUBLIC "-//W3C//DTD SVG 1.1//EN" "http://www.w3.org/Graphics/SVG/1.1/DTD/svg11.dtd">
<svg version="1.1" id="Layer_1" xmlns="http://www.w3.org/2000/svg" xmlns:xlink="http://www.w3.org/1999/xlink" x="0px" y="0px"
	 width="300px" height="60px" viewBox="0 0 300 60" enable-background="new 0 0 300 60" xml:space="preserve">
<g>
	<path d="M79.806,23.362c0-1.279,1.075-2.327,3.871-2.327c1.806,0,3.755,0.521,5.648,1.6l1.452-3.582
		c-1.889-1.191-4.508-1.805-7.072-1.805c-5.792,0-8.587,2.884-8.587,6.346c0,7.568,11.849,4.949,11.849,8.762
		c0,1.25-1.135,2.187-3.931,2.187c-2.444,0-5.006-0.875-6.724-2.127l-1.601,3.551c1.806,1.399,5.063,2.358,8.295,2.358
		c5.821,0,8.645-2.912,8.645-6.317C91.652,24.525,79.806,27.117,79.806,23.362"/>
	<path d="M104.079,22.083c-2.006,0-3.755,0.638-4.975,1.861v-7.565h-4.541v21.598h4.541v-7.743c0-2.884,1.569-4.224,3.754-4.224
		c2.007,0,3.174,1.167,3.174,3.698v8.267h4.54V29.01C110.572,24.236,107.777,22.083,104.079,22.083"/>
	<path d="M119.013,24.381v-2.065h-4.336v15.661h4.541v-7.394c0-3,1.657-4.368,4.16-4.368c0.35,0,0.642,0.031,1.019,0.06v-4.191
		C121.981,22.083,120.12,22.869,119.013,24.381"/>
	<path d="M142.298,30.202c0-5.034-3.55-8.119-8.151-8.119c-4.773,0-8.352,3.377-8.352,8.062c0,4.657,3.522,8.063,8.934,8.063
		c2.824,0,5.01-0.874,6.466-2.531l-2.418-2.618c-1.076,1.019-2.271,1.512-3.928,1.512c-2.39,0-4.047-1.194-4.484-3.146h11.846
		C142.242,31.047,142.298,30.555,142.298,30.202 M130.309,28.777c0.317-2.009,1.801-3.261,3.871-3.261
		c2.038,0,3.522,1.28,3.843,3.261H130.309z"/>
	<path d="M156.734,16.378v7.597c-1.135-1.283-2.764-1.892-4.686-1.892c-4.425,0-7.831,3.144-7.831,8.062
		c0,4.917,3.406,8.063,7.831,8.063c2.1,0,3.756-0.669,4.891-2.037v1.806h4.336V16.378H156.734z M152.836,34.48
		c-2.27,0-4.015-1.629-4.015-4.336c0-2.707,1.746-4.336,4.015-4.336c2.243,0,3.987,1.629,3.987,4.336
		C156.823,32.854,155.079,34.48,152.836,34.48"/>
	<rect x="164.887" y="27.963" width="8.239" height="3.639"/>
	<path d="M186.223,22.083c-2.127,0-3.959,0.726-5.184,2.065v-1.833h-4.336v15.66h4.541v-7.742c0-2.884,1.572-4.224,3.755-4.224
		c2.009,0,3.173,1.167,3.173,3.698v8.268h4.541V29.01C192.712,24.236,189.92,22.083,186.223,22.083"/>
	<rect x="196.234" y="27.963" width="8.238" height="3.639"/>
	<path d="M211.457,23.362c0-1.279,1.079-2.327,3.871-2.327c1.806,0,3.755,0.521,5.648,1.6l1.455-3.582
		c-1.894-1.191-4.514-1.805-7.072-1.805c-5.793,0-8.588,2.884-8.588,6.346c0,7.568,11.847,4.949,11.847,8.762
		c0,1.25-1.136,2.187-3.927,2.187c-2.447,0-5.008-0.875-6.729-2.127l-1.604,3.551c1.807,1.399,5.067,2.358,8.298,2.358
		c5.823,0,8.647-2.912,8.647-6.317C223.309,24.525,211.457,27.117,211.457,23.362"/>
	<path d="M235.732,22.083c-2.01,0-3.754,0.638-4.979,1.861v-7.565h-4.541v21.598h4.541v-7.743c0-2.884,1.573-4.224,3.755-4.224
		c2.011,0,3.175,1.167,3.175,3.698v8.267h4.541V29.01C242.225,24.236,239.434,22.083,235.732,22.083"/>
	<path d="M252.646,22.083c-2.504,0-5.035,0.669-6.752,1.892l1.629,3.174c1.136-0.903,2.853-1.457,4.514-1.457
		c2.443,0,3.605,1.136,3.605,3.084h-3.605c-4.773,0-6.727,1.921-6.727,4.685c0,2.708,2.186,4.746,5.853,4.746
		c2.298,0,3.93-0.758,4.772-2.182v1.949h4.252v-8.938C260.188,24.293,257.419,22.083,252.646,22.083 M255.643,33.025
		c-0.521,1.428-1.834,2.125-3.346,2.125c-1.601,0-2.563-0.758-2.563-1.895c0-1.047,0.67-1.833,2.796-1.833h3.112V33.025
		L255.643,33.025z"/>
	<path d="M273.545,22.083c-2.095,0-3.784,0.669-4.918,2.037v-1.805h-4.337v21.308h4.541v-7.309c1.164,1.283,2.764,1.894,4.714,1.894
		c4.396,0,7.803-3.146,7.803-8.063C281.348,25.227,277.941,22.083,273.545,22.083 M272.758,34.48c-2.271,0-3.986-1.629-3.986-4.336
		c0-2.707,1.718-4.336,3.986-4.336c2.27,0,3.988,1.629,3.988,4.336C276.746,32.854,275.027,34.48,272.758,34.48"/>
	<path d="M299.715,30.202c0-5.034-3.554-8.119-8.15-8.119c-4.772,0-8.354,3.377-8.354,8.062c0,4.657,3.521,8.063,8.938,8.063
		c2.824,0,5.006-0.874,6.463-2.531l-2.416-2.618c-1.078,1.019-2.271,1.512-3.93,1.512c-2.389,0-4.05-1.194-4.484-3.146h11.849
		C299.654,31.047,299.715,30.555,299.715,30.202 M287.721,28.777c0.32-2.009,1.805-3.261,3.871-3.261
		c2.038,0,3.521,1.28,3.844,3.261H287.721z"/>
</g>
<path fill="#FC7E8F" d="M60.001,34.102c-2.266,16.41-17.405,27.879-33.816,25.613C9.774,57.45-1.694,42.311,0.57,25.9
	C2.835,9.489,17.975-1.979,34.386,0.286C50.798,2.55,62.265,17.69,60.001,34.102"/>
<path d="M13.188,26.221c0-1.932,1.566-3.499,3.498-3.499c1.816,0,3.309,1.385,3.481,3.156c0.278,0.233,0.529,0.5,0.746,0.79
	c0.016-0.147,0.024-0.296,0.024-0.447c0-2.348-1.903-4.25-4.251-4.25c-2.347,0-4.25,1.903-4.25,4.25
	c0,0.538,0.099,1.051,0.282,1.525c0.135-0.34,0.309-0.66,0.516-0.956C13.204,26.605,13.188,26.415,13.188,26.221"/>
<path d="M16.686,23.311c-1.582,0-2.869,1.261-2.91,2.833c0.856-0.852,2.037-1.379,3.341-1.379c0.86,0,1.666,0.229,2.36,0.628
	C19.121,24.189,18.005,23.311,16.686,23.311"/>
<path d="M21.513,29.5c-0.024-0.46-0.121-0.904-0.279-1.314c-0.117-0.302-0.267-0.586-0.446-0.85c-0.18-0.266-0.39-0.51-0.625-0.73
	c-0.176-0.162-0.366-0.311-0.567-0.443c-0.669-0.439-1.468-0.693-2.329-0.693c-1.364,0-2.577,0.642-3.354,1.64
	c-0.149,0.189-0.28,0.39-0.394,0.602c-0.15,0.281-0.27,0.579-0.354,0.893c-0.078,0.288-0.127,0.587-0.142,0.896
	c-0.004,0.073-0.006,0.146-0.006,0.22c0,0.078,0.001,0.157,0.006,0.232c0.121,2.238,1.974,4.018,4.244,4.018
	c1.652,0,3.084-0.943,3.788-2.318c0.263-0.514,0.424-1.09,0.457-1.698c0.005-0.076,0.007-0.154,0.007-0.232
	C21.519,29.646,21.517,29.573,21.513,29.5 M20.758,29.952c-0.037,0.551-0.2,1.067-0.463,1.521c-0.605,1.043-1.733,1.745-3.028,1.745
	c-1.854,0-3.37-1.44-3.49-3.265c-0.005-0.076-0.008-0.154-0.008-0.232c0-0.074,0.002-0.146,0.007-0.22
	c0.003-0.056,0.008-0.11,0.014-0.166c0.033-0.304,0.105-0.596,0.21-0.87c0.079-0.204,0.177-0.402,0.291-0.586
	c0.617-0.994,1.719-1.658,2.975-1.658c0.843,0,1.615,0.298,2.22,0.793c0.167,0.141,0.325,0.293,0.464,0.462
	c0.127,0.153,0.243,0.315,0.342,0.488c0.051,0.086,0.097,0.174,0.14,0.265c0.183,0.39,0.297,0.819,0.325,1.271
	c0.005,0.073,0.006,0.146,0.006,0.22C20.766,29.798,20.763,29.876,20.758,29.952"/>
<path d="M20.18,29.72c0,0.595-0.179,1.147-0.486,1.609c-0.521,0.785-1.413,1.302-2.425,1.302c-1.608,0-2.911-1.304-2.911-2.911
	c0-0.86,0.374-1.633,0.966-2.165c0.262-0.236,0.568-0.425,0.904-0.553l0,0c0.324-0.125,0.674-0.192,1.041-0.192
	c0.851,0,1.616,0.365,2.149,0.947C19.89,28.275,20.18,28.963,20.18,29.72"/>
<path d="M34.008,46.364c-0.037,0.024-0.173,0.118-0.32,0.223c-0.025,0.021-0.05,0.04-0.075,0.06
	c-0.089,0.068-0.177,0.138-0.26,0.198v4.999c0,0.016,0.013,0.025,0.032,0.025h0.635c0.018,0,0.031-0.012,0.031-0.025v-5.46
	c0-0.015-0.014-0.026-0.031-0.026C34.02,46.357,34.015,46.359,34.008,46.364"/>
<path d="M48.83,45.947h-0.635c-0.018,0-0.031,0.012-0.031,0.025v5.869c0,0.016,0.013,0.025,0.031,0.025h0.635
	c0.018,0,0.032-0.012,0.032-0.025v-5.869C48.861,45.959,48.848,45.947,48.83,45.947"/>
<path d="M43.583,48.547L43.583,48.547L43.583,48.547l-0.015-0.001c-0.01,0.08-0.021,0.161-0.034,0.243c0,0,0,0,0-0.002
	c0,0.002,0,0.002,0,0.002c-0.026,0.177-0.059,0.355-0.107,0.531h0.668h0.002v-0.773h-0.002H43.583z"/>
<polygon points="38.072,49.655 38.076,49.646 38.072,49.646 "/>
<path d="M37.909,48.383v-2.869c0-0.162-0.131-0.295-0.293-0.295l-1.964-0.07c-0.208,0.16-1.001,0.854-1.196,1.007l-0.045,6.149
	c0,0.162,0.132,0.293,0.294,0.293h2.911c0.162,0,0.293-0.131,0.293-0.293v-2.82l0,0l0,0V48.383L37.909,48.383L37.909,48.383z"/>
<path d="M38.727,48.547h-0.655v-0.001h-0.004v0.001l0,0l0,0l0,0v0.771l0,0v0.002l0,0l0,0h0.004l0,0h0.139h0.024h0.572
	c-0.017-0.084-0.029-0.168-0.041-0.25C38.743,48.896,38.73,48.723,38.727,48.547"/>
<path d="M43.63,48.221c0.197-1.578-0.242-2.189-0.618-2.992c-0.411-0.864-0.796-1.153-0.723-1.588c0.063-0.382,1-8.556,1.226-10.533
	c0.033-0.282,0.003-0.566-0.088-0.836c-0.533-1.573-2.445-7.226-2.921-8.672c-0.51-1.552-0.367-2.043-1.147-4.005
	c-0.363-0.703-0.948-1.523-1.863-2.121c-1.006-0.658-1.838-1.313-2.408-1.795c-1.121-0.948-1.483-2.531-0.864-3.862
	c0.008-0.018,0.018-0.037,0.025-0.055c0.846-1.751,0.991-2.545,0.991-2.545c0.267-2.026-0.798-2.752-0.13-3.009
	c0.025-0.01,0.05-0.019,0.075-0.025c0.026-0.009,0.053-0.013,0.079-0.018c0.113-0.016,0.216,0,0.308,0.042
	c0.198,0.09,0.351,0.297,0.472,0.536c0.117,0.187,0.207,0.374,0.248,0.489c0.115,0.333,0.17,0.893,0.516,1.511
	c0.547,0.84,1.368,0.952,1.879,0.922c0.279-0.015,0.466-0.072,0.466-0.077c-1.812-0.917-1.885-1.667-1.9-1.81l0,0
	c-0.001-0.014-0.002-0.022-0.005-0.022c0.792,0.212,1.274,0.181,1.543,0.117c0.201-0.05,0.285-0.117,0.291-0.117
	c-0.682-0.151-1.179-0.491-1.515-0.812c-0.321-0.305-0.554-0.69-0.691-1.112L36.833,5.7c1.436-0.545,1.545-1.029,1.505-1.905
	C38.289,2.722,36.531,0.855,35.303,1c-1.229,0.146-1.807,0.796-2,1.783c-0.192,0.988,0.265,1.179-0.313,1.469
	c-0.578-1.373-2.246-1.245-2.891-1.156c-1.06,0.146-3.613,1.373-4.48,3.108c-0.868,1.733,0,2.167,0,2.167l0.289,0.193
	c0,0-0.168,1.276-0.072,1.926c0.065,0.445,0.403,0.756,0.608,0.906c0.103,0.077,0.16,0.196,0.157,0.323l-0.063,2.25
	c-0.002,0.088,0.068,0.158,0.156,0.156l0.716-0.017c0.035-0.003,0.063,0.026,0.063,0.062v0.577c0,0.033,0.025,0.06,0.058,0.062
	l0.28,0.02l0.078,0.214c0.01,0.028,0.039,0.046,0.07,0.042c0.104-0.015,0.336-0.037,0.405,0.081c0.055,0.094,0.41,1.182,0.724,1.302
	c0.341,0.131,0.7-0.108,1.039-0.128c0.532-0.034,0.816,0.64,0.973,1.047c0.529,1.377-0.36,2.574-1.222,3.567
	c-0.629,0.726-1.265,1.444-1.939,2.127c-0.839,0.851-1.718,1.752-1.898,2.984c-0.173,1.192,0.242,2.409,0.751,3.449
	c0.001,0.002,0.861,1.759,0.861,1.759c0.044,0.088-0.037,0.188-0.133,0.164l-5.541-1.395c0,0.063-0.001,0.127-0.005,0.191
	c-0.033,0.608-0.195,1.184-0.458,1.698c-0.17,0.336-0.383,0.642-0.632,0.916L28,35.76c0.148,0.059,0.247,0.203,0.251,0.362
	l0.246,1.759l0.014,0.098l0.013,0.092l0.08,0.574l0.05,0.364c0.015,0.103,0.027,0.204,0.04,0.308
	c0.019,0.16,0.036,0.322,0.049,0.483c0.076,0.876,0.074,1.757-0.005,2.632c0,0.002,0,0.004-0.001,0.006
	c-0.002,0.027-0.004,0.058-0.007,0.084c-0.002,0.029-0.006,0.062-0.009,0.09c-0.021,0.212-0.047,0.42-0.078,0.628
	c-0.039,0.274-0.087,0.554-0.144,0.825c-0.005,0.029-0.011,0.06-0.018,0.088c-0.005,0.029-0.012,0.061-0.019,0.092
	c-0.052,0.236-0.109,0.479-0.172,0.715c-0.015,0.053-0.026,0.102-0.038,0.139L27.67,47.24c-0.595,2.187-0.913,4.438-0.945,6.703
	l-0.072,5.067l0.718-0.466c2.366-1.531,4.922-2.749,7.603-3.619l0.255-0.082l1.074-1.918h-1.598c-0.342,0-0.621-0.277-0.621-0.619
	l0.001-0.115c-0.021,0.006-0.044,0.01-0.067,0.01h-0.635c-0.199,0-0.358-0.158-0.358-0.354v-5.16l0.128-0.099
	c0.067-0.052,0.137-0.104,0.209-0.159c0.024-0.02,0.048-0.039,0.074-0.058c0.001,0,0.002-0.001,0.003-0.003
	c0.016-0.012,0.032-0.023,0.048-0.037l0.006-0.004L33.5,46.32c0.012-0.008,0.023-0.019,0.035-0.024
	c0.16-0.112,0.299-0.208,0.299-0.208l0.083-0.057h0.102c0.039,0,0.077,0.007,0.112,0.019v-0.058l0.126-0.098
	c0.091-0.069,0.341-0.283,0.583-0.489c0.259-0.222,0.503-0.431,0.612-0.517l0.093-0.072l0.119,0.006l1.958,0.07
	c0.338,0.006,0.612,0.279,0.612,0.621v2.707h0.342c0.205-0.75,0.33-1.521,0.37-2.305l0.037-0.742
	c0.08-1.593-0.432-3.158-1.438-4.398l-0.487-0.603c-0.077-0.094-0.148-0.192-0.216-0.294c-0.401-0.604-0.626-1.307-0.646-2.031
	c0-0.035-0.001-0.072-0.001-0.108v-0.835c0-0.438,0.025-0.872,0.075-1.305c0.004-0.033,0.007-0.063,0.012-0.097
	c0.003-0.03,0.007-0.063,0.012-0.097c0.03-0.234,0.069-0.469,0.115-0.701c0.025-0.13,0.053-0.262,0.083-0.391l0.056-0.241
	l0.042-0.183l0.022-0.096l0.022-0.096l0.954-4.095c0.083-0.354,0.564-0.413,0.73-0.088l1.723,3.392
	c0.147,0.29,0.22,0.613,0.21,0.939l-0.323,11.885c0,0-0.385,0.338-0.531,0.65c-0.35,0.758-0.433,1.359-0.362,1.834l0,0
	c0.004,0.029,0.009,0.061,0.014,0.088c0.257,1.328,1.745,1.618,1.745,1.618s1.383,0.356,2.208-0.282
	c0.082-0.064,0.159-0.14,0.229-0.226c0.001,0,0.039-0.144,0.039-0.144c0.07-0.254,0.107-0.521,0.137-0.752l0.018-0.143h0.183
	C43.616,48.328,43.624,48.273,43.63,48.221"/>
<path d="M47.464,45.219h-2.911c-0.161,0-0.293,0.133-0.293,0.295v2.869l0,0v1.102l0,0v2.82c0,0.162,0.132,0.293,0.293,0.293h2.911
	c0.162,0,0.292-0.131,0.292-0.293v-6.791C47.756,45.352,47.625,45.219,47.464,45.219"/>
<path fill="#FAAE1D" d="M33.518,44.768l-0.077,1.601v0.007c0,0-0.001-0.001-0.003-0.004c-0.098-0.084-2.053-1.771-3.194-1.926
	c-0.686-0.092-1.268-0.189-1.761-0.293c-2.696-0.56-2.751-1.221-2.819-1.284v-1.901c0.065,0.139,0.146,0.266,0.239,0.385
	c0.046,0.059,0.095,0.112,0.147,0.166c0.083,0.086,0.174,0.164,0.272,0.231c0.052,0.038,0.107,0.071,0.164,0.104
	c0.145,0.084,0.303,0.151,0.468,0.198c0.027,0.013,0.055,0.024,0.083,0.037c0.029,0.013,0.06,0.025,0.09,0.036
	c0.103,0.043,0.212,0.082,0.327,0.12c0.057,0.019,0.116,0.037,0.176,0.054c0.105,0.031,0.213,0.061,0.326,0.086
	c0.059,0.014,0.118,0.027,0.178,0.039c0.152,0.032,0.31,0.061,0.473,0.081c0.042,0.007,0.083,0.013,0.125,0.017
	c0.018,0.002,0.036,0.006,0.055,0.008c0.119,0.014,0.24,0.022,0.363,0.029c0.048,0.004,0.097,0.006,0.145,0.008
	c0.012,0.002,0.023,0.002,0.035,0.002c0.135,0.008,0.269,0.019,0.401,0.033c0.06,0.008,0.121,0.017,0.18,0.023
	c0.14,0.021,0.277,0.047,0.413,0.076c0.059,0.015,0.12,0.029,0.178,0.044c0.124,0.03,0.246,0.067,0.367,0.104
	c0.059,0.02,0.119,0.039,0.176,0.061c0.157,0.056,0.31,0.117,0.456,0.184c0.059,0.026,0.116,0.055,0.172,0.08
	c0.149,0.073,0.291,0.15,0.427,0.23c0.044,0.027,0.088,0.055,0.13,0.08v0.002c0.15,0.095,0.291,0.193,0.42,0.297
	c0.056,0.043,0.109,0.088,0.161,0.132c0.094,0.082,0.182,0.164,0.263,0.248c0.054,0.057,0.104,0.112,0.152,0.17
	C33.345,44.479,33.444,44.624,33.518,44.768"/>
<path fill="#FAAE1D" d="M28.186,38.148c0.166-0.09,0.335-0.181,0.508-0.267v1.843c-2.842,1.193-2.454,1.811-2.435,1.834
	c0.11,0.164,0.354,0.336,0.693,0.49c-0.57-0.158-1.039-0.563-1.291-1.086V40.82c0-0.426,0.157-0.838,0.44-1.156
	c0.218-0.245,0.491-0.482,0.804-0.714c0.221-0.165,0.463-0.325,0.719-0.48C27.805,38.359,27.993,38.252,28.186,38.148"/>
<path fill="#FAAE1D" d="M39.462,35.333l-0.045,2.194c-0.053-0.197-0.123-0.352-0.235-0.512c-0.14-0.203-0.298-0.394-0.468-0.564
	c-0.369-0.376-0.834-0.62-1.315-0.762c-0.455-0.135-0.927-0.188-1.397-0.198c-0.28-0.007-0.56,0.003-0.84,0.015
	c-0.07,0.002-2.458,0.102-3.528,0.092c-1.774-0.041-4.508-0.145-5.826-2.125l0.069-1.576c0,0,0.932,1.234,2.318,1.518
	c2.137,0.436,5.153,0.213,6.903,0.293C36.549,33.77,38.481,33.736,39.462,35.333"/>
<path fill="#FAAE1D" d="M38.631,36.368c0.387,0.239,0.656,0.716,0.787,1.198v0.006c-0.351,1.137-1.571,1.945-2.443,2.175
	c-0.027,0.007-0.055,0.015-0.083,0.022c-0.029,0.006-0.059,0.016-0.088,0.021c-0.209-0.409-0.492-1.085-0.56-1.865
	c0.353-0.066,0.674-0.15,0.959-0.244c0.274-0.093,0.516-0.192,0.72-0.298c0.351-0.178,0.593-0.366,0.714-0.536
	c0.106-0.149,0.09-0.365,0-0.469L38.631,36.368z"/>
<path d="M33.209,44.182c-0.002-0.004-0.005-0.006-0.007-0.009c-0.003-0.004-0.006-0.007-0.01-0.01
	c-0.001-0.002-0.002-0.003-0.003-0.003c-0.116-0.126-0.249-0.251-0.396-0.372c-0.001-0.001-0.003-0.003-0.005-0.004
	c-0.008-0.011-0.018-0.021-0.029-0.024c-0.002-0.001-0.003-0.003-0.004-0.004l0,0c-0.316-0.254-0.693-0.492-1.114-0.691l0,0
	c-0.011-0.008-0.025-0.017-0.041-0.02c-0.002-0.001-0.004-0.001-0.006-0.003c-0.188-0.087-0.386-0.167-0.589-0.237c0,0,0,0-0.001,0
	c-0.002,0-0.003,0-0.005-0.002c-0.011-0.007-0.022-0.011-0.036-0.013c-0.002,0-0.004-0.001-0.007-0.001
	c-0.165-0.057-0.333-0.105-0.506-0.148c0,0-0.001,0-0.002,0c-0.005-0.002-0.012-0.004-0.018-0.004
	c-0.006-0.002-0.011-0.003-0.017-0.005h-0.002c-0.185-0.044-0.374-0.08-0.565-0.106c-0.009-0.002-0.018-0.002-0.028-0.004
	c-0.171-0.021-0.346-0.039-0.52-0.045c-0.188-0.009-0.375-0.021-0.559-0.045c-0.008,0-0.017-0.002-0.024-0.002
	c-0.006-0.003-0.013-0.003-0.019-0.003c0,0,0,0-0.001,0l0,0c-0.213-0.026-0.421-0.063-0.624-0.106
	c-0.006-0.002-0.013-0.002-0.018-0.004c-0.166-0.035-0.326-0.08-0.48-0.127c-0.005-0.004-0.011-0.004-0.018-0.006
	c-0.171-0.054-0.333-0.113-0.484-0.179H27.07c-0.027-0.012-0.053-0.022-0.079-0.034c-0.322-0.15-0.555-0.313-0.656-0.462
	c-0.001-0.002-0.028-0.046,0.002-0.142c0.077-0.239,0.49-0.76,2.394-1.561c0.005-0.002,0.01-0.006,0.014-0.008
	c0.025-0.016,0.042-0.045,0.042-0.074v-1.843c0-0.03-0.017-0.06-0.043-0.075c-0.026-0.017-0.06-0.019-0.087-0.005
	c-0.052,0.026-0.104,0.054-0.157,0.079c-0.114,0.061-0.229,0.119-0.344,0.184c-0.007,0.002-0.014,0.006-0.019,0.01
	c-0.19,0.104-0.372,0.208-0.543,0.312c-0.004,0.003-0.008,0.005-0.012,0.007c-0.002,0.002-0.005,0.004-0.007,0.004
	c-0.264,0.16-0.504,0.319-0.713,0.478c-0.002,0.002-0.005,0.003-0.006,0.005c-0.001,0-0.003,0.001-0.003,0.002
	c-0.327,0.242-0.601,0.485-0.813,0.725c-0.299,0.334-0.463,0.768-0.463,1.217v0.145v1.901c0,0.022,0.008,0.044,0.023,0.062
	c0.003,0.006,0.007,0.012,0.01,0.021c0.273,0.523,1.232,0.957,2.857,1.294c0.521,0.106,1.11,0.204,1.768,0.291
	c1.073,0.144,2.929,1.717,3.133,1.894c0.024-0.02,0.048-0.039,0.073-0.058c0.002,0.003,0.004,0.004,0.004,0.004v-0.007
	c0.016-0.012,0.032-0.023,0.048-0.037l0.006-0.004L33.5,46.32c0.011-0.008,0.023-0.019,0.034-0.024l0.072-1.524
	c0.001-0.016-0.002-0.03-0.009-0.045C33.506,44.546,33.375,44.361,33.209,44.182 M25.752,40.82c0-0.404,0.149-0.795,0.417-1.096
	c0.033-0.037,0.067-0.074,0.103-0.111v0.547c0,0.05,0.041,0.09,0.09,0.09c0.05,0,0.091-0.04,0.091-0.09v-0.723
	c0.11-0.103,0.231-0.205,0.362-0.307l0,0v0.321c0,0.05,0.041,0.09,0.09,0.09c0.049,0,0.09-0.041,0.09-0.09v-0.457l0,0
	c0.163-0.12,0.343-0.242,0.539-0.365l0,0v0.515c0,0.051,0.041,0.09,0.091,0.09s0.09-0.041,0.09-0.09v-0.623l0,0
	c0.121-0.074,0.248-0.147,0.379-0.222l0,0v0.599c0,0.051,0.041,0.091,0.09,0.091c0.05,0,0.09-0.041,0.09-0.091v-0.696
	c0.083-0.045,0.166-0.089,0.248-0.132c0.027-0.014,0.053-0.026,0.08-0.041v1.635c-1.847,0.783-2.35,1.335-2.445,1.661
	c-0.018,0.063-0.021,0.112-0.018,0.155c-0.021-0.021-0.04-0.039-0.058-0.061c-0.018-0.02-0.037-0.039-0.055-0.063
	c-0.001-0.002,0-0.002,0-0.002c-0.021-0.021-0.042-0.049-0.063-0.073c-0.006-0.007-0.011-0.015-0.016-0.021
	c-0.015-0.021-0.03-0.041-0.044-0.062c-0.003-0.004-0.005-0.008-0.006-0.012c-0.019-0.023-0.035-0.049-0.051-0.074
	c-0.002-0.004-0.004-0.008-0.006-0.012c-0.018-0.026-0.035-0.058-0.051-0.086c-0.001,0-0.001,0-0.001-0.002
	c-0.013-0.024-0.026-0.052-0.038-0.076V40.82H25.752z M33.359,46.186c-0.485-0.408-2.087-1.694-3.104-1.83
	c-0.652-0.086-1.238-0.184-1.755-0.291c-1.554-0.318-2.488-0.728-2.733-1.197c-0.004-0.012-0.009-0.02-0.014-0.026V41.3
	c0.019,0.028,0.038,0.056,0.059,0.081c0.011,0.016,0.022,0.029,0.035,0.044c0.007,0.009,0.014,0.019,0.022,0.026l0,0l0,0v0.729
	c0,0.051,0.04,0.09,0.09,0.09s0.09-0.039,0.09-0.09v-0.537l0,0v0.002c0.05,0.045,0.101,0.088,0.154,0.129
	c0.014,0.013,0.028,0.021,0.042,0.031c0.016,0.012,0.031,0.022,0.047,0.033c0.004,0.003,0.009,0.006,0.013,0.01v0.683
	c0,0.05,0.041,0.09,0.09,0.09c0.05,0,0.09-0.04,0.09-0.09v-0.57c0.033,0.019,0.067,0.035,0.101,0.052
	c0.021,0.01,0.043,0.021,0.065,0.029c0.005,0.003,0.012,0.006,0.018,0.007c0.022,0.013,0.045,0.021,0.068,0.028
	c0.06,0.021,0.123,0.044,0.186,0.063c0.007,0.002,0.014,0.006,0.022,0.01v0.494c0,0.049,0.04,0.09,0.09,0.09
	c0.05,0,0.09-0.041,0.09-0.09v-0.418c0.104,0.041,0.21,0.08,0.322,0.114v0.519c0,0.051,0.041,0.091,0.09,0.091
	c0.05,0,0.09-0.04,0.09-0.091v-0.463c0.106,0.03,0.214,0.061,0.324,0.084l0,0v0.563c0,0.051,0.041,0.09,0.091,0.09
	s0.09-0.039,0.09-0.09V42.52c0.154,0.031,0.312,0.06,0.472,0.08v0.565c0,0.051,0.04,0.09,0.09,0.09c0.05,0,0.09-0.039,0.09-0.09
	V42.62l0,0c0.12,0.014,0.242,0.022,0.362,0.028l0,0v0.517c0,0.051,0.041,0.09,0.09,0.09c0.05,0,0.09-0.039,0.09-0.09V42.66
	c0.135,0.006,0.268,0.017,0.4,0.033l0,0v0.531c0,0.051,0.041,0.09,0.09,0.09c0.05,0,0.09-0.039,0.09-0.09v-0.508
	c0.139,0.021,0.276,0.047,0.41,0.078v0.563c0,0.052,0.041,0.093,0.091,0.093c0.05,0,0.09-0.041,0.09-0.093v-0.519
	c0.123,0.032,0.244,0.067,0.361,0.106l0,0v0.658c0,0.049,0.041,0.09,0.09,0.09c0.049,0,0.09-0.041,0.09-0.09v-0.598v0.001
	c0.154,0.056,0.303,0.117,0.447,0.185v0.646c0,0.051,0.041,0.091,0.091,0.091c0.049,0,0.09-0.04,0.09-0.091v-0.563
	c0.131,0.063,0.257,0.134,0.377,0.205l0,0c0,0,0,0,0,0.002v0.642c0,0.05,0.041,0.091,0.091,0.091c0.05,0,0.09-0.041,0.09-0.091
	v-0.531c0.142,0.093,0.276,0.188,0.399,0.287l0,0v0.677c0,0.049,0.041,0.09,0.091,0.09c0.05,0,0.09-0.041,0.09-0.09v-0.521v0.001
	c0.084,0.073,0.162,0.149,0.233,0.228v0.754c0,0.051,0.041,0.09,0.09,0.09c0.05,0,0.09-0.039,0.09-0.09v-0.543v0.002
	c0.08,0.104,0.148,0.207,0.203,0.312L33.359,46.186z"/>
<path d="M39.55,35.334c0-0.021-0.005-0.04-0.016-0.057c-0.348-0.565-0.809-0.934-1.325-1.17c-0.493-0.23-1.036-0.344-1.575-0.406
	c-0.031-0.003-0.063-0.008-0.093-0.01l0,0c-0.012-0.037-0.044-0.063-0.081-0.063c-0.032,0-0.059,0.021-0.074,0.048l0,0
	c-0.338-0.031-0.672-0.043-0.988-0.056c-0.1-0.004-0.199-0.007-0.294-0.013c-0.118-0.004-0.242-0.01-0.373-0.012
	c-0.468-0.012-1.003-0.009-1.563-0.005c-0.352,0.002-0.712,0.005-1.077,0.005c-0.269,0-0.54-0.005-0.812-0.009l0,0l0,0
	c-0.303-0.006-0.605-0.015-0.904-0.028c-0.001,0-0.003,0-0.005,0h-0.001h-0.001h-0.001c-0.276-0.016-0.549-0.031-0.816-0.057
	c-0.001,0-0.001,0-0.002,0h-0.001c-0.306-0.027-0.604-0.063-0.891-0.105c-0.151-0.024-0.298-0.051-0.442-0.08
	c-0.134-0.026-0.264-0.063-0.388-0.106c-1.125-0.392-1.87-1.364-1.878-1.375c-0.023-0.03-0.061-0.043-0.094-0.03
	c-0.034,0.012-0.058,0.047-0.06,0.088l-0.069,1.574c-0.001,0.023,0.004,0.045,0.017,0.063c1.371,2.063,4.203,2.125,5.895,2.163
	c0.436,0.005,1.387-0.006,3.435-0.086c0.055-0.002,0.088-0.002,0.097-0.002c0.264-0.015,0.548-0.022,0.835-0.017
	c0.092,0.002,0.182,0.007,0.269,0.013c0.416,0.024,0.78,0.086,1.107,0.183c0.474,0.141,0.874,0.36,1.192,0.655
	c0.002,0.002,0.005,0.006,0.008,0.011c0.062,0.069,0.071,0.229-0.006,0.34c-0.111,0.157-0.335,0.328-0.634,0.485
	c-0.001,0-0.003,0-0.004,0c-0.017,0.004-0.033,0.012-0.044,0.022c0,0,0,0-0.001,0S37.886,37.3,37.886,37.3
	c-0.192,0.099-0.412,0.19-0.652,0.272c-0.001,0-0.002,0-0.003,0c-0.005,0-0.009-0.004-0.013-0.004c-0.023,0-0.044,0.011-0.06,0.026
	l0,0c-0.287,0.095-0.6,0.175-0.927,0.236c-0.013,0.002-0.024,0.007-0.034,0.017c-0.025,0.021-0.04,0.053-0.037,0.088
	c0.069,0.787,0.349,1.47,0.571,1.902c0.015,0.031,0.045,0.051,0.075,0.051c0.006,0,0.013-0.003,0.02-0.005l0.018-0.005l0.153-0.04
	c0.793-0.209,2.115-0.979,2.504-2.237c0.003-0.011,0.005-0.024,0.005-0.035c0-0.006,0-0.012-0.002-0.02
	c0.002-0.007,0.002-0.014,0.002-0.021L39.55,35.334z M36.293,35.407c-0.094-0.005-0.19-0.011-0.289-0.013
	c-0.07-0.002-0.138-0.004-0.207-0.004c-0.22,0-0.436,0.01-0.639,0.019c-0.007,0-0.041,0.001-0.097,0.003
	c-2.044,0.081-2.991,0.092-3.426,0.088c-1.652-0.037-4.412-0.1-5.739-2.059l0.058-1.311c0.092,0.104,0.228,0.248,0.402,0.404v0.583
	c0,0.053,0.039,0.097,0.087,0.097c0.048,0,0.087-0.044,0.087-0.097v-0.435c0.121,0.099,0.254,0.196,0.4,0.293l0,0v0.604
	c0,0.053,0.039,0.099,0.088,0.099c0.048,0,0.087-0.046,0.087-0.099v-0.496v0.001c0.182,0.105,0.382,0.204,0.595,0.283l0,0v0.498
	c0,0.054,0.039,0.097,0.087,0.097c0.048,0,0.087-0.043,0.087-0.097V33.43c0.099,0.031,0.2,0.057,0.304,0.078
	c0.121,0.024,0.243,0.047,0.368,0.066v0.613c0,0.055,0.039,0.098,0.088,0.098c0.048,0,0.087-0.042,0.087-0.098v-0.586
	c0.239,0.037,0.484,0.063,0.735,0.088v0.631c0,0.054,0.039,0.098,0.087,0.098s0.087-0.043,0.087-0.098v-0.614l0,0
	c0.213,0.019,0.429,0.032,0.646,0.042v0.693c0,0.054,0.04,0.097,0.087,0.097c0.048,0,0.088-0.043,0.088-0.097v-0.686
	c0.243,0.014,0.49,0.02,0.736,0.023v0.66c0,0.055,0.039,0.098,0.087,0.098s0.087-0.043,0.087-0.098v-0.657
	c0.212,0.004,0.426,0.006,0.637,0.006l0,0v0.651c0,0.055,0.039,0.098,0.087,0.098s0.087-0.043,0.087-0.098V33.79
	c0.235,0,0.468-0.001,0.698-0.001v0.729c0,0.053,0.039,0.098,0.087,0.098s0.088-0.045,0.088-0.098v-0.729
	c0.039,0,0.079-0.001,0.118-0.001c0.197,0,0.39-0.002,0.579-0.003v0.733c0,0.055,0.039,0.099,0.086,0.099
	c0.049,0,0.088-0.044,0.088-0.099v-0.733c0.253,0,0.495,0,0.722,0.004v0.598c0,0.056,0.04,0.099,0.087,0.099
	c0.048,0,0.087-0.043,0.087-0.099v-0.593c0.096,0.003,0.189,0.006,0.278,0.012c0.096,0.004,0.195,0.008,0.295,0.012
	c0.036,0.002,0.072,0.002,0.109,0.004l0,0v0.623c0,0.054,0.039,0.097,0.087,0.097s0.087-0.043,0.087-0.097v-0.615
	c0.227,0.012,0.461,0.023,0.698,0.045v0.757c0,0.054,0.039,0.097,0.087,0.097c0.048,0,0.087-0.043,0.087-0.097v-0.741l0,0
	c0.014,0.002,0.028,0.004,0.042,0.006c0.217,0.023,0.434,0.057,0.648,0.104v0.521c0,0.055,0.04,0.099,0.088,0.099
	c0.048,0,0.087-0.044,0.087-0.099v-0.481l0,0c0.231,0.058,0.458,0.13,0.674,0.229l0,0v0.508c0,0.054,0.04,0.098,0.087,0.098
	c0.049,0,0.088-0.044,0.088-0.098V34.35l0,0c0.197,0.103,0.383,0.225,0.556,0.373v0.713c0,0.053,0.039,0.098,0.087,0.098
	s0.087-0.045,0.087-0.098V34.88c0.14,0.14,0.267,0.3,0.381,0.481l-0.035,1.732l-0.001-0.001c-0.162-0.353-0.39-0.633-0.652-0.8
	c-0.338-0.314-0.763-0.55-1.264-0.698C37.086,35.495,36.715,35.434,36.293,35.407 M36.956,39.654l-0.107,0.029
	c-0.199-0.401-0.434-0.998-0.509-1.677c0.277-0.056,0.542-0.123,0.791-0.2l0,0v0.752c0,0.055,0.039,0.099,0.087,0.099
	c0.048,0,0.087-0.043,0.087-0.099v-0.811c0.201-0.068,0.386-0.146,0.555-0.227l0,0v0.44c0,0.054,0.039,0.099,0.087,0.099
	c0.048,0,0.087-0.043,0.087-0.099v-0.528l0,0c0.231-0.123,0.417-0.254,0.55-0.386c0,0,0,0,0-0.001v0.42
	c0,0.055,0.039,0.098,0.087,0.098c0.048,0,0.087-0.043,0.087-0.098v-0.641c0-0.006-0.001-0.01-0.002-0.014c0,0,0.001,0,0.001-0.002
	c0.02-0.045,0.031-0.095,0.036-0.143c0.117,0.13,0.224,0.266,0.32,0.404c0.034,0.05,0.064,0.098,0.09,0.146
	c0.047,0.107,0.089,0.225,0.123,0.346C38.992,38.605,37.859,39.415,36.956,39.654"/>
</svg>
