<?xml version="1.0" encoding="utf-8"?>
<!-- Generator: Adobe Illustrator 15.0.0, SVG Export Plug-In . SVG Version: 6.00 Build 0)  -->
<!DOCTYPE svg PUBLIC "-//W3C//DTD SVG 1.1//EN" "http://www.w3.org/Graphics/SVG/1.1/DTD/svg11.dtd">
<svg version="1.1" id="Layer_1" xmlns="http://www.w3.org/2000/svg" xmlns:xlink="http://www.w3.org/1999/xlink" x="0px" y="0px"
	 width="178px" height="80px" viewBox="0 0 178 80" enable-background="new 0 0 178 80" xml:space="preserve">
<g>
	<rect x="0.938" y="40.394" width="52.825" height="1.212"/>
	<g>
		<path d="M26.59,16.558c-0.191-0.007-0.388,0-0.583,0.018c-1.056,0.11-1.926,0.629-2.462,1.326
			c-0.17,0.224-0.268,0.359-0.354,0.441c-0.089,0.082-0.183,0.142-0.443,0.242c-0.213,0.082-0.311,0.295-0.213,0.473
			c0.098,0.178,0.354,0.259,0.566,0.178c0.319-0.121,0.549-0.252,0.725-0.413c0.174-0.16,0.281-0.323,0.438-0.533
			c0.417-0.543,1.065-0.924,1.85-1.006c1.176-0.121,2.292,0.441,2.709,1.365c0.272,0.601,0.196,1.244-0.153,1.777
			c-0.218,0.263-0.474,0.519-0.715,0.729c-0.239,0.206-0.521,0.437-0.768,0.679c-0.453,0.465-0.589,1.02-0.614,1.545
			c-0.03,0.526,0.039,1.045,0.03,1.514c-0.008,0.195,0.175,0.362,0.414,0.37c0.234,0.007,0.435-0.146,0.443-0.345
			c0-0.004,0-0.011,0-0.015c0.009-0.526-0.055-1.041-0.03-1.493c0.025-0.451,0.124-0.821,0.423-1.126
			c0.204-0.203,0.468-0.423,0.72-0.64c0.276-0.242,0.57-0.526,0.823-0.835c0.008-0.007,0.013-0.018,0.021-0.029
			c0.477-0.714,0.575-1.589,0.213-2.392c-0.485-1.077-1.696-1.788-3.034-1.841L26.59,16.558z"/>
		<path d="M27.216,24.775c0,0-0.017,0-0.03,0c-0.047,0-0.094,0-0.136,0c-0.013,0-0.026,0-0.034,0c-0.602,0.007-1.006,0.1-1.508,0.26
			c-2.509,0.792-3.822,3.213-5.565,5.047c-1.073,1.201-1.985,1.518-3.545,2.196L6.827,36.44l-2.168,0.995
			c-0.46,0.209-1.662,0.725-1.883,0.839c-0.75,0.409-1.358,0.736-1.798,1.205c-0.716,0.754-0.84,1.216-0.976,1.893
			c-0.013,0.913-0.008,1.016,0.869,0.594l26.411-12.498l26.411,12.498c0.877,0.423,0.883,0.322,0.87-0.594
			c-0.136-0.677-0.26-1.135-0.976-1.893c-0.438-0.469-1.047-0.796-1.798-1.205c-0.223-0.117-1.423-0.633-1.883-0.839l-2.169-0.995
			l-9.57-4.163c-1.56-0.679-2.472-0.995-3.545-2.196c-1.747-1.838-3.06-4.269-5.586-5.055c-0.46-0.17-1.013-0.234-1.487-0.252
			c-0.013,0-0.026,0-0.034,0c-0.047,0-0.094,0-0.136,0c-0.03,0-0.064,0-0.094,0C27.258,24.775,27.237,24.775,27.216,24.775z"/>
		<path d="M66.925,41.374c0.166-0.078,0.226-0.12,0.174-0.12C67.049,41.254,66.993,41.293,66.925,41.374z M65.429,21.949
			c-0.63-0.078-1.256-0.216-1.87-0.415c-0.614-0.199-1.24-0.359-1.871-0.476c-0.099,0.952-0.167,1.904-0.201,2.86
			c-0.034,0.953-0.051,1.905-0.051,2.861c0,1.351,0.068,2.69,0.2,4.023s0.349,2.652,0.647,3.963c0.166,0.636,0.35,1.251,0.55,1.847
			c0.2,0.597,0.447,1.173,0.75,1.728c0.264,0.476,0.549,0.953,0.849,1.429c0.298,0.476,0.664,0.875,1.094,1.191
			c0.166,0.081,0.333,0.159,0.5,0.236c0.166,0.082,0.332,0.14,0.498,0.179c0.099-0.159,0.191-0.315,0.272-0.476
			s0.158-0.316,0.226-0.478c0.666-1.549,1.18-3.216,1.547-5.003c0.034-0.078,0.051-0.178,0.051-0.298
			c0-0.121,0.017-0.217,0.051-0.299c0,0.121-0.034,0.259-0.098,0.416c0.034-0.078,0.051-0.139,0.051-0.178s0.017-0.078,0.051-0.121
			c0.098-0.597,0.315-1.091,0.647-1.489c0.264-0.316,0.532-0.625,0.796-0.924c0.264-0.299,0.566-0.544,0.899-0.747
			c0.23-0.199,0.49-0.366,0.771-0.505s0.558-0.228,0.823-0.267c0.132-0.039,0.29-0.018,0.473,0.061
			c0.183,0.082,0.255,0.238,0.227,0.476c-0.133,1.035-0.324,2.047-0.576,3.039s-0.576,1.947-0.972,2.86
			c-0.2,0.516-0.409,1.002-0.623,1.461c-0.217,0.458-0.456,0.903-0.724,1.34c-0.797,1.273-1.696,2.386-2.694,3.338
			c-0.566,0.557-1.206,1.063-1.921,1.518s-1.453,0.746-2.22,0.863c-0.934,0.16-1.828-0.121-2.692-0.836
			c-0.465-0.359-0.865-0.803-1.198-1.34c-0.332-0.536-0.63-1.079-0.898-1.638c-0.332-0.676-0.597-1.352-0.796-2.027
			c-0.2-0.675-0.383-1.351-0.55-2.026c-0.298-1.351-0.507-2.702-0.622-4.052c-0.115-1.351-0.176-2.719-0.176-4.112
			c0-1.511,0.061-3,0.176-4.468c0.115-1.468,0.272-2.939,0.473-4.41c0.235-1.55,0.499-3.078,0.797-4.589
			c0.298-1.511,0.647-3.018,1.047-4.528c0.167-0.675,0.35-1.34,0.549-1.998c0.2-0.654,0.4-1.319,0.597-1.998
			c0.2-0.597,0.4-1.2,0.596-1.815c0.2-0.615,0.43-1.201,0.699-1.759c0.068-0.16,0.124-0.306,0.174-0.448
			c0.051-0.139,0.106-0.288,0.175-0.448c0.298-0.676,0.715-1.28,1.249-1.816c0.533-0.536,1.079-0.963,1.645-1.28
			c0.068-0.039,0.192-0.1,0.375-0.178c0.184-0.078,0.375-0.139,0.576-0.178c0.2-0.039,0.375-0.021,0.523,0.061
			c0.149,0.082,0.226,0.238,0.226,0.476c0,0.082-0.009,0.149-0.026,0.21s-0.025,0.128-0.025,0.209
			c-0.034,0.636-0.077,1.291-0.124,1.966c-0.051,0.675-0.191,1.312-0.421,1.905c-0.333,0.835-0.848,1.528-1.547,2.086
			c-0.333,1.072-0.623,2.153-0.874,3.249c-0.251,1.095-0.49,2.197-0.724,3.306c-0.132,0.597-0.251,1.191-0.35,1.788
			c-0.098,0.597-0.2,1.19-0.298,1.788l0.899-0.359c0.63-0.16,1.261-0.217,1.896-0.178c0.63,0.039,1.261,0.16,1.896,0.359
			c0.532,0.121,1.056,0.249,1.572,0.388c0.516,0.138,1.057,0.249,1.619,0.327c0.166,0,0.35-0.011,0.55-0.028
			c0.201-0.021,0.383-0.05,0.549-0.089c0.034,0,0.068-0.011,0.098-0.028c0.034-0.021,0.068-0.028,0.098-0.028
			c0.264-0.199,0.523-0.398,0.771-0.597c0.251-0.199,0.524-0.338,0.822-0.416c0.166-0.078,0.357-0.139,0.576-0.178
			c0.218-0.039,0.375,0.039,0.473,0.238c0.132,0.199,0.149,0.416,0.051,0.654c-0.098,0.238-0.2,0.437-0.298,0.597
			c-0.166,0.32-0.366,0.608-0.597,0.864c-0.234,0.259-0.481,0.505-0.746,0.747c-0.698,0.714-1.461,1.29-2.292,1.727
			c-0.269,0.16-0.542,0.31-0.822,0.448c-0.282,0.139-0.559,0.249-0.822,0.327c-1.031,0.238-2.029,0.277-2.991,0.121L65.429,21.949z"
			/>
		<path d="M88.603,34.774c-0.115,0.067-0.153,0.096-0.124,0.082c0.034-0.014,0.063-0.032,0.098-0.061L88.603,34.774z M78.827,32.069
			c0,0-0.034,0.007-0.047,0.021c-0.017,0-0.025,0-0.025,0.011c0,0.007-0.009,0.01-0.025,0.01l0.047-0.021
			c0,0,0.025-0.007,0.025-0.021H78.827z M77.387,29.769c-0.132,0.448-0.213,0.899-0.244,1.354c-0.034,0.455-0.034,0.914,0,1.372
			c0.145-0.054,0.287-0.089,0.414-0.104c0.081,0,0.153,0,0.217-0.01c0.064-0.007,0.136-0.018,0.221-0.032
			c0.034-0.014,0.073-0.025,0.124-0.032c0.047-0.007,0.09-0.018,0.125-0.032c0.034-0.014,0.056-0.021,0.073-0.021
			c0.017,0,0.038-0.007,0.072-0.021c0.064-0.029,0.106-0.039,0.124-0.039c0.034-0.014,0.051-0.025,0.06-0.032
			c0.008-0.007,0.03-0.018,0.06-0.032c0.034,0,0.064-0.015,0.098-0.039c0.017-0.015,0.034-0.021,0.047-0.021
			c0.017-0.028,0.055-0.053,0.123-0.082c0.034-0.028,0.06-0.046,0.085-0.06c0.025-0.014,0.051-0.032,0.085-0.061
			c0.017-0.014,0.026-0.025,0.026-0.032c0-0.007,0.008-0.018,0.025-0.032c0.034-0.014,0.051-0.028,0.06-0.039
			c0.009-0.014,0.03-0.032,0.06-0.061c0.034-0.028,0.064-0.057,0.098-0.092c0.034-0.032,0.064-0.064,0.098-0.092
			c0-0.015,0-0.021,0.013-0.021c0.008,0,0.013-0.007,0.013-0.021c0.179-0.188,0.349-0.405,0.511-0.65
			c0.26-0.395,0.447-0.778,0.563-1.159c0.046-0.188,0.076-0.38,0.085-0.569c0.008-0.188-0.013-0.38-0.06-0.568
			c-0.098-0.231-0.251-0.413-0.464-0.547c-0.081-0.04-0.166-0.068-0.255-0.082c-0.089-0.014-0.184-0.028-0.282-0.039
			c-0.081,0-0.166,0-0.255,0.011c-0.089,0.007-0.175,0.018-0.255,0.032l-0.294,0.061c-0.047,0.014-0.106,0.036-0.17,0.061h-0.025
			c-0.034,0.014-0.06,0.028-0.085,0.039c-0.025,0.014-0.051,0.028-0.085,0.039c-0.017,0-0.03,0-0.039,0.011
			c-0.008,0.011-0.021,0.011-0.038,0.011l-0.047,0.039c-0.034,0.039-0.072,0.075-0.125,0.103c-0.034,0.053-0.064,0.096-0.098,0.121
			c-0.063,0.11-0.124,0.185-0.17,0.224c-0.115,0.188-0.208,0.38-0.281,0.569c-0.072,0.188-0.141,0.38-0.208,0.568L77.387,29.769z
			 M90.702,33.796c0.047,0.067,0.047,0.142,0,0.224c-0.048,0.082-0.089,0.149-0.123,0.203c-0.115,0.149-0.229,0.281-0.354,0.398
			c-0.124,0.114-0.257,0.234-0.4,0.355l-0.099,0.082l-0.366,0.245c-0.034,0.029-0.064,0.05-0.098,0.071
			c-0.034,0.021-0.063,0.042-0.098,0.071c-0.474,0.299-1.009,0.523-1.611,0.672c-0.422,0.11-0.823,0.164-1.193,0.164
			c-0.456,0.014-0.907-0.011-1.354-0.071c-0.447-0.061-0.881-0.139-1.304-0.235c-0.473-0.106-0.93-0.231-1.375-0.366
			c-0.448-0.135-0.9-0.27-1.355-0.405c-0.438-0.149-0.877-0.291-1.317-0.426c-0.439-0.135-0.887-0.263-1.342-0.388
			c-0.179-0.053-0.349-0.103-0.511-0.142s-0.332-0.082-0.512-0.121c0.063,0.448,0.133,0.896,0.208,1.343
			c0.072,0.448,0.141,0.903,0.208,1.361c0.017,0.082-0.021,0.174-0.11,0.274c-0.09,0.103-0.166,0.181-0.23,0.234
			c-0.132,0.121-0.265,0.231-0.4,0.327c-0.136,0.096-0.29,0.181-0.453,0.263c-0.115,0.067-0.238,0.125-0.379,0.174
			c-0.136,0.046-0.281,0.079-0.426,0.093c-0.132,0.028-0.226,0.007-0.294-0.061c-0.132-0.327-0.238-0.658-0.328-0.995
			c-0.09-0.338-0.167-0.686-0.23-1.038c-0.081-0.611-0.132-1.215-0.145-1.82c-0.017-0.604-0.034-1.208-0.047-1.82v-1.31
			c0-0.441-0.042-0.878-0.124-1.312c-0.034-0.327-0.077-0.647-0.132-0.967c-0.056-0.32-0.102-0.64-0.132-0.967
			c-0.017-0.135-0.03-0.267-0.039-0.398c-0.008-0.128,0-0.26,0.013-0.398c0.017-0.067,0.034-0.131,0.047-0.192
			c0.017-0.061,0.042-0.125,0.072-0.192c0.081-0.121,0.167-0.231,0.256-0.327c0.089-0.096,0.2-0.188,0.329-0.284
			c0.098-0.082,0.192-0.149,0.281-0.203c0.089-0.054,0.191-0.114,0.307-0.181c0.227-0.149,0.486-0.245,0.78-0.285
			c0.128-0.028,0.251-0.021,0.366,0.021c0.115,0.067,0.226,0.142,0.341,0.224c0.063,0.053,0.072,0.128,0.025,0.224
			c-0.047,0.096-0.089,0.157-0.124,0.185c-0.132,0.149-0.268,0.277-0.414,0.387c0.018,0.029,0.025,0.068,0.025,0.121
			c0.017,0.313,0.064,0.643,0.145,0.995c0.017,0.096,0.03,0.188,0.038,0.284c0.009,0.096,0.03,0.196,0.06,0.306
			c0.034-0.028,0.064-0.053,0.098-0.082l0.098-0.082c0.226-0.188,0.478-0.37,0.754-0.541c0.277-0.17,0.554-0.323,0.831-0.458
			c0.277-0.121,0.559-0.234,0.84-0.334c0.286-0.103,0.579-0.185,0.89-0.256c0.358-0.068,0.716-0.107,1.074-0.121
			c0.358-0.014,0.69,0.075,1.002,0.263c0.208,0.121,0.362,0.288,0.451,0.498c0.089,0.209,0.141,0.416,0.158,0.622
			c0.017,0.27-0.013,0.547-0.085,0.825c-0.072,0.277-0.174,0.547-0.307,0.803c-0.312,0.665-0.708,1.248-1.193,1.749
			c-0.277,0.285-0.566,0.555-0.864,0.814c-0.302,0.26-0.622,0.501-0.962,0.732c0.081,0.028,0.204,0.053,0.366,0.082
			c0.438,0.11,0.874,0.231,1.304,0.366c0.43,0.135,0.856,0.27,1.278,0.405c0.473,0.149,0.928,0.292,1.375,0.426
			c0.447,0.135,0.907,0.263,1.376,0.388c0.405,0.11,0.818,0.199,1.232,0.273c0.413,0.075,0.831,0.125,1.256,0.153
			c0.145,0,0.293,0,0.452-0.01c0.153-0.007,0.311-0.025,0.477-0.05h0.047c0.162-0.178,0.357-0.338,0.583-0.487
			c0.127-0.082,0.268-0.156,0.414-0.224c0.145-0.068,0.295-0.121,0.438-0.164c0.081-0.028,0.175-0.046,0.281-0.061
			c0.105-0.014,0.191,0.014,0.256,0.082L90.702,33.796z"/>
		<path d="M96.573,34.976c-0.034,0.014-0.063,0.025-0.098,0.032C96.44,35.015,96.476,35.008,96.573,34.976z M89.676,29.606
			c-0.214,0.352-0.384,0.732-0.512,1.137c-0.034,0.11-0.055,0.213-0.072,0.316c-0.017,0.103-0.034,0.206-0.047,0.316
			c0.081-0.053,0.153-0.103,0.217-0.142c0.063-0.039,0.136-0.082,0.217-0.121c0.098-0.053,0.191-0.1,0.281-0.131
			c0.09-0.032,0.184-0.064,0.28-0.093c0.129-0.028,0.214-0.039,0.244-0.039c0.294-0.053,0.579-0.096,0.863-0.121
			c0.285-0.028,0.57-0.067,0.866-0.121c0.08-0.028,0.148-0.046,0.209-0.06c0.055-0.014,0.118-0.032,0.182-0.061
			c0.019,0,0.057-0.014,0.125-0.039c0.26-0.082,0.527-0.185,0.805-0.306c0.132-0.039,0.235-0.089,0.315-0.142
			c0.047-0.014,0.106-0.032,0.17-0.061c0.082-0.053,0.172-0.103,0.27-0.142c0.1-0.039,0.188-0.089,0.27-0.142
			c0.063-0.015,0.137-0.054,0.217-0.121c0.18-0.096,0.332-0.188,0.465-0.284c0.033-0.014,0.059-0.029,0.085-0.039
			c0.025-0.015,0.052-0.032,0.086-0.061c0.064-0.053,0.123-0.103,0.184-0.142c0.056-0.039,0.123-0.089,0.209-0.143
			c0.017-0.028,0.056-0.067,0.123-0.121c0.033-0.028,0.051-0.046,0.06-0.061c0.01-0.014,0.03-0.032,0.062-0.061
			c0.063-0.082,0.114-0.149,0.145-0.202c0.033-0.029,0.051-0.061,0.06-0.104c0.009-0.039,0.021-0.074,0.038-0.103
			c0.018-0.096,0.018-0.188,0-0.284c-0.047-0.121-0.152-0.231-0.314-0.327c-0.213-0.096-0.438-0.16-0.683-0.192
			c-0.242-0.032-0.48-0.057-0.707-0.071c-0.52-0.029-0.993,0-1.415,0.082c-0.033,0-0.051,0-0.06,0.011
			c-0.009,0.007-0.021,0.011-0.038,0.011c-0.115,0.028-0.217,0.053-0.314,0.082c-0.099,0.028-0.197,0.053-0.295,0.082
			c-0.017,0-0.033,0.007-0.047,0.021c-0.033,0.014-0.06,0.025-0.085,0.032c-0.024,0.007-0.051,0.018-0.085,0.032
			c-0.047,0.029-0.094,0.046-0.133,0.061c-0.042,0.014-0.085,0.028-0.132,0.039c-0.035,0.014-0.057,0.028-0.072,0.039
			c-0.018,0.014-0.043,0.028-0.072,0.039l-0.218,0.121c-0.063,0.028-0.106,0.053-0.124,0.082l-0.217,0.121
			c-0.034,0.028-0.055,0.042-0.072,0.05c-0.018,0.007-0.043,0.025-0.072,0.049l-0.217,0.182l-0.124,0.103
			c-0.034,0.039-0.073,0.082-0.124,0.121c-0.051,0.039-0.089,0.075-0.123,0.103c-0.018,0.029-0.047,0.061-0.098,0.104
			c-0.035,0.039-0.068,0.082-0.112,0.121c-0.043,0.039-0.076,0.089-0.109,0.142c-0.063,0.068-0.125,0.139-0.172,0.213
			c-0.047,0.074-0.104,0.153-0.17,0.234L89.676,29.606z M101.499,32.21c0.047,0.068,0.047,0.143,0,0.224
			c-0.048,0.081-0.089,0.149-0.123,0.203c-0.324,0.419-0.694,0.807-1.106,1.159c-0.415,0.352-0.856,0.686-1.329,0.995
			c-0.457,0.299-0.936,0.569-1.44,0.814c-0.503,0.246-1.022,0.462-1.56,0.65c-0.537,0.188-1.083,0.345-1.632,0.469
			c-0.556,0.121-1.122,0.196-1.71,0.224c-0.484,0.028-0.979,0.011-1.475-0.05s-0.973-0.181-1.428-0.355
			c-0.959-0.379-1.721-0.928-2.292-1.646c-0.554-0.747-0.779-1.553-0.682-2.421c0.047-0.473,0.175-0.928,0.379-1.361
			c0.205-0.434,0.46-0.846,0.768-1.24c0.357-0.477,0.771-0.917,1.244-1.322c0.472-0.405,0.975-0.778,1.513-1.12
			c0.52-0.327,1.077-0.622,1.67-0.885c0.593-0.263,1.207-0.465,1.841-0.601c0.276-0.053,0.554-0.096,0.831-0.121
			c0.277-0.029,0.554-0.04,0.831-0.04c0.227,0,0.455,0.007,0.682,0.021c0.226,0.014,0.456,0.039,0.683,0.082
			c0.341,0.067,0.626,0.178,0.853,0.327c0.195,0.11,0.314,0.271,0.365,0.487c0.035,0.11,0.039,0.213,0.024,0.316
			c-0.017,0.104-0.041,0.199-0.071,0.295c-0.099,0.245-0.251,0.479-0.464,0.711c-0.276,0.337-0.592,0.65-0.95,0.935
			c-0.357,0.284-0.725,0.555-1.1,0.814c-0.357,0.245-0.729,0.473-1.107,0.683c-0.383,0.209-0.774,0.409-1.185,0.601
			c-0.423,0.188-0.861,0.373-1.316,0.547c-0.456,0.178-0.921,0.334-1.391,0.469c-0.275,0.067-0.557,0.125-0.839,0.174
			c-0.285,0.046-0.57,0.085-0.864,0.11c0.034,0.11,0.055,0.181,0.072,0.224c0.162,0.448,0.426,0.86,0.792,1.24
			c0.366,0.38,0.784,0.7,1.257,0.956c0.375,0.188,0.768,0.334,1.186,0.427c0.413,0.096,0.839,0.156,1.278,0.181
			c0.584,0.028,1.172-0.014,1.756-0.121c0.128-0.028,0.251-0.053,0.365-0.082c0.115-0.028,0.234-0.06,0.367-0.103
			c0.08-0.014,0.203-0.046,0.365-0.103c0.034,0,0.051,0,0.061-0.011c0.009-0.007,0.021-0.011,0.037-0.011
			c0.129-0.039,0.249-0.085,0.355-0.131c0.106-0.046,0.213-0.1,0.328-0.153c0.019,0,0.028,0,0.038-0.011
			c0.009-0.007,0.021-0.011,0.038-0.011c0.063-0.028,0.124-0.053,0.171-0.082s0.098-0.053,0.145-0.082
			c0.034-0.029,0.073-0.046,0.125-0.061c0.047-0.014,0.088-0.032,0.123-0.061c0.018-0.014,0.033-0.025,0.047-0.032
			c0.018-0.007,0.033-0.018,0.047-0.032l0.293-0.185l0.048-0.039c0.063-0.039,0.125-0.085,0.184-0.131
			c0.057-0.046,0.119-0.092,0.184-0.131c0.035-0.029,0.061-0.053,0.086-0.082c0.025-0.028,0.052-0.053,0.084-0.082
			c0.099-0.082,0.172-0.149,0.219-0.203c0.033-0.028,0.051-0.046,0.061-0.061c0.008-0.014,0.028-0.032,0.059-0.061
			c0.035-0.028,0.082-0.082,0.146-0.163c0.081-0.107,0.183-0.213,0.308-0.316c0.123-0.103,0.246-0.192,0.38-0.274
			c0.128-0.082,0.269-0.156,0.412-0.224c0.146-0.068,0.295-0.121,0.439-0.164c0.08-0.028,0.174-0.046,0.28-0.061
			c0.106-0.015,0.192,0.014,0.256,0.082h-0.008V32.21z"/>
		<path d="M109.426,30.665c0.047,0.448,0.076,0.896,0.085,1.344c0.009,0.448,0.014,0.896,0.014,1.344
			c-0.019,0.434-0.029,0.864-0.039,1.29c-0.009,0.427-0.029,0.857-0.06,1.291c-0.034,0.352-0.056,0.703-0.072,1.059
			c-0.018,0.352-0.024,0.704-0.024,1.059c0,0.096-0.043,0.185-0.125,0.274c-0.08,0.089-0.152,0.167-0.217,0.234
			c-0.131,0.121-0.265,0.231-0.4,0.327c-0.137,0.096-0.29,0.181-0.452,0.263c-0.033,0.029-0.115,0.064-0.242,0.11
			c-0.133,0.046-0.26,0.089-0.393,0.121c-0.131,0.032-0.246,0.042-0.354,0.032c-0.105-0.014-0.156-0.075-0.156-0.185v-0.021
			c-0.019-0.352-0.019-0.7,0-1.048c0.016-0.345,0.041-0.697,0.071-1.049c0.033-0.434,0.052-0.863,0.06-1.29
			c0.009-0.427,0.021-0.857,0.039-1.291c0.017-0.448,0.017-0.896,0-1.343c-0.019-0.448-0.047-0.896-0.099-1.344
			c-0.034-0.405-0.086-0.811-0.157-1.208c-0.072-0.397-0.174-0.796-0.309-1.191c-0.081-0.231-0.179-0.458-0.294-0.682
			c-0.113-0.224-0.243-0.438-0.393-0.64c-0.114-0.149-0.233-0.291-0.365-0.426c-0.133-0.135-0.285-0.252-0.465-0.345
			c-0.324,0.529-0.589,1.084-0.794,1.667c-0.203,0.583-0.396,1.166-0.569,1.749c-0.099,0.352-0.19,0.708-0.28,1.066
			c-0.091,0.359-0.176,0.722-0.258,1.088c-0.098,0.501-0.194,0.999-0.293,1.496c-0.098,0.494-0.162,0.999-0.196,1.514
			c-0.017,0.11-0.056,0.203-0.123,0.285c-0.063,0.082-0.137,0.156-0.218,0.224c-0.132,0.121-0.264,0.231-0.399,0.327
			c-0.137,0.096-0.29,0.181-0.452,0.263c-0.033,0.028-0.115,0.064-0.242,0.11c-0.133,0.046-0.26,0.089-0.393,0.121
			c-0.131,0.032-0.246,0.042-0.354,0.032c-0.104-0.014-0.157-0.075-0.157-0.181c0-0.704-0.021-1.407-0.06-2.104
			c-0.043-0.697-0.095-1.394-0.157-2.086c-0.048-0.516-0.104-1.035-0.157-1.557c-0.058-0.522-0.119-1.048-0.185-1.575
			c-0.034-0.231-0.06-0.462-0.086-0.693c-0.025-0.231-0.052-0.462-0.084-0.693c-0.019-0.106-0.035-0.209-0.048-0.306
			c-0.018-0.096-0.034-0.195-0.047-0.306c0-0.053,0-0.106-0.014-0.153c-0.008-0.046-0.012-0.099-0.012-0.153
			c-0.018-0.028-0.025-0.067-0.025-0.121c-0.018-0.053-0.01-0.106,0.025-0.164c-0.018-0.039-0.025-0.078-0.025-0.11
			c0-0.032-0.01-0.071-0.025-0.11c-0.018-0.082,0.021-0.167,0.109-0.256c0.09-0.089,0.158-0.167,0.209-0.235
			c0.242-0.203,0.503-0.38,0.78-0.529c0.047-0.029,0.128-0.064,0.242-0.11c0.115-0.046,0.23-0.089,0.354-0.121
			c0.125-0.032,0.23-0.039,0.328-0.021s0.154,0.078,0.172,0.174c0,0.054,0.008,0.103,0.024,0.143
			c0.047,0.028,0.071,0.074,0.071,0.142c0.083,0.554,0.163,1.105,0.245,1.646c0.08,0.544,0.151,1.091,0.217,1.646
			c0.08-0.149,0.152-0.302,0.217-0.458c0.064-0.156,0.137-0.309,0.218-0.458c0.161-0.284,0.337-0.562,0.524-0.835
			c0.187-0.271,0.399-0.522,0.646-0.754c0.181-0.177,0.38-0.341,0.597-0.498c0.218-0.156,0.451-0.295,0.695-0.416
			c0.195-0.096,0.4-0.185,0.621-0.263c0.218-0.082,0.443-0.121,0.669-0.121c0.129,0,0.251,0.007,0.367,0.021
			c0.115,0.014,0.233,0.053,0.366,0.121c0.128,0.067,0.251,0.139,0.365,0.213c0.115,0.075,0.222,0.167,0.314,0.274
			c0.277,0.27,0.499,0.572,0.67,0.906s0.319,0.675,0.452,1.027c0.131,0.395,0.234,0.796,0.314,1.208
			c0.08,0.412,0.137,0.825,0.17,1.23L109.426,30.665z"/>
		<path d="M119.104,34.649c0.033-0.014,0.052-0.024,0.06-0.032c0.01-0.007,0.029-0.018,0.061-0.032l-0.145-1.038
			c-0.1-0.622-0.219-1.244-0.354-1.863c-0.138-0.618-0.315-1.229-0.525-1.841l-0.145-0.427c-0.1-0.245-0.209-0.487-0.328-0.732
			c-0.124-0.246-0.266-0.48-0.426-0.711c-0.115-0.164-0.239-0.32-0.379-0.469c-0.137-0.149-0.308-0.277-0.5-0.388
			c-0.161-0.067-0.341-0.114-0.536-0.142h-0.124c-0.033,0.028-0.047,0.053-0.047,0.082l-0.218,0.185
			c-0.017,0.028-0.043,0.057-0.071,0.092c-0.034,0.036-0.06,0.061-0.085,0.082s-0.03,0.021-0.014,0
			c0.019-0.021,0.063-0.071,0.146-0.153c-0.034,0.053-0.072,0.103-0.123,0.142s-0.09,0.082-0.124,0.121
			c-0.018,0.029-0.042,0.054-0.072,0.082c-0.214,0.245-0.385,0.476-0.512,0.693c-0.521,0.8-0.903,1.643-1.146,2.524
			c-0.131,0.476-0.218,0.963-0.257,1.464c-0.041,0.501,0.014,0.992,0.158,1.464c0.115,0.299,0.273,0.569,0.478,0.814
			c0.205,0.245,0.461,0.448,0.768,0.611c0.08,0.053,0.17,0.1,0.268,0.131c0.101,0.036,0.197,0.064,0.296,0.093
			c0.099,0.028,0.199,0.046,0.308,0.06c0.104,0.015,0.208,0.029,0.308,0.04c0.42,0,0.795-0.029,1.119-0.082
			c0.146-0.039,0.3-0.082,0.451-0.121c0.153-0.039,0.308-0.082,0.451-0.121c0.018,0,0.034-0.007,0.047-0.021
			c0.047-0.014,0.094-0.028,0.133-0.039c0.038-0.014,0.085-0.032,0.132-0.06c0.081-0.029,0.167-0.057,0.257-0.093
			c0.09-0.032,0.176-0.071,0.256-0.11c0.033-0.014,0.051-0.021,0.061-0.021c0.008,0,0.029-0.007,0.059-0.021
			c0.047-0.028,0.104-0.053,0.158-0.082c0.055-0.028,0.11-0.053,0.157-0.082L119.104,34.649L119.104,34.649z M124.178,30.928
			c0.08,0.028,0.124,0.071,0.132,0.131c0.009,0.061,0,0.117-0.038,0.174c-0.161,0.366-0.379,0.708-0.646,1.027
			c-0.269,0.32-0.56,0.622-0.865,0.906c-0.146,0.135-0.298,0.27-0.451,0.405c-0.153,0.135-0.319,0.263-0.499,0.387
			c0.035,0.625,0.035,1.241,0,1.852c-0.018,0.096-0.055,0.185-0.123,0.273c-0.063,0.089-0.138,0.167-0.218,0.235
			c-0.133,0.121-0.264,0.23-0.4,0.327s-0.289,0.185-0.451,0.263c-0.047,0.028-0.133,0.064-0.256,0.11s-0.246,0.089-0.379,0.121
			c-0.134,0.032-0.248,0.043-0.354,0.032c-0.106-0.014-0.158-0.075-0.158-0.181c0-0.054,0-0.107-0.012-0.153
			c-0.01-0.046-0.015-0.1-0.015-0.153c-0.017-0.188-0.032-0.384-0.047-0.58c-0.017-0.195-0.032-0.391-0.047-0.58
			c-0.455,0.231-0.915,0.444-1.376,0.64c-0.465,0.195-0.938,0.37-1.428,0.519c-0.485,0.149-0.992,0.259-1.512,0.334
			c-0.521,0.075-1.04,0.078-1.561,0.011c-0.214-0.029-0.418-0.085-0.623-0.174c-0.204-0.089-0.396-0.185-0.57-0.295
			c-0.26-0.148-0.512-0.366-0.755-0.649c-0.213-0.285-0.365-0.594-0.465-0.924c-0.098-0.331-0.152-0.668-0.17-1.006
			c-0.018-0.395,0.01-0.778,0.072-1.159c0.064-0.38,0.154-0.761,0.27-1.138c0.114-0.352,0.242-0.704,0.391-1.059
			c0.146-0.352,0.317-0.697,0.514-1.038c0.115-0.178,0.222-0.349,0.328-0.519c0.104-0.171,0.221-0.341,0.354-0.519l0.293-0.366
			l0.144-0.179c0.047-0.039,0.095-0.082,0.134-0.121c0.038-0.039,0.076-0.082,0.11-0.121l0.047-0.039V27.7
			c0.322-0.352,0.677-0.682,1.061-0.984c0.385-0.306,0.812-0.572,1.278-0.803c0.322-0.149,0.677-0.281,1.062-0.398
			c0.385-0.114,0.758-0.131,1.133-0.05c0.227,0.054,0.405,0.121,0.538,0.203c-0.033-0.448-0.06-0.896-0.086-1.343
			c-0.024-0.448-0.037-0.896-0.037-1.344c-0.082-0.039-0.123-0.103-0.123-0.181c0-0.149,0.012-0.306,0.037-0.469
			c0.025-0.164,0.051-0.327,0.086-0.487c0.018-0.082,0.024-0.159,0.024-0.234v-0.273c0.019-0.068,0.043-0.128,0.086-0.182
			c0.042-0.053,0.084-0.113,0.132-0.181c0.034-0.028,0.051-0.046,0.061-0.061c0.008-0.014,0.029-0.028,0.059-0.039
			c0.227-0.231,0.494-0.419,0.807-0.568c0.033-0.014,0.109-0.046,0.229-0.103c0.124-0.054,0.253-0.1,0.394-0.132
			c0.137-0.032,0.26-0.046,0.365-0.039c0.107,0.007,0.158,0.064,0.158,0.174c-0.034,1.301,0,2.586,0.109,3.853
			c0.106,1.269,0.229,2.545,0.381,3.835c0.08,0.8,0.166,1.589,0.255,2.371c0.09,0.778,0.158,1.571,0.209,2.371
			c0.035-0.039,0.057-0.078,0.072-0.11c0.018-0.032,0.043-0.071,0.072-0.11c0.081-0.107,0.133-0.196,0.146-0.263
			c0.063-0.106,0.146-0.213,0.243-0.316c0.097-0.103,0.195-0.185,0.293-0.256c0.129-0.106,0.27-0.203,0.414-0.284
			c0.145-0.082,0.304-0.157,0.464-0.224c0.1-0.039,0.214-0.078,0.342-0.11c0.132-0.032,0.251-0.035,0.365-0.01L124.178,30.928z"/>
		<path d="M131.442,46.79c-0.099,0.039-0.132,0.053-0.099,0.039S131.408,46.8,131.442,46.79z M136.368,35.015
			c0.261,0.988,0.466,1.989,0.61,3c0.145,1.009,0.136,2.022-0.026,3.04c-0.079,0.486-0.202,0.973-0.364,1.453
			c-0.163,0.48-0.386,0.945-0.661,1.392c-0.228,0.381-0.481,0.74-0.769,1.078c-0.284,0.338-0.605,0.664-0.963,0.978
			c-0.716,0.623-1.513,1.174-2.39,1.646c-0.88,0.478-1.82,0.82-2.83,1.037c-0.733,0.164-1.472,0.249-2.22,0.256
			c-0.747,0.008-1.479-0.104-2.194-0.334c-0.636-0.201-1.205-0.494-1.718-0.873c-0.513-0.381-0.907-0.836-1.185-1.361
			c-0.325-0.598-0.503-1.247-0.538-1.951c-0.033-0.434-0.013-0.853,0.061-1.263c0.072-0.403,0.175-0.819,0.307-1.239
			c0.081-0.136,0.181-0.252,0.296-0.345c0.063-0.082,0.145-0.149,0.241-0.202c0.134-0.11,0.265-0.203,0.399-0.285
			c0.138-0.081,0.291-0.156,0.453-0.224c0.098-0.027,0.207-0.061,0.326-0.103c0.126-0.039,0.24-0.046,0.355-0.021
			c0.082,0.027,0.129,0.061,0.133,0.103c0.004,0.043,0.013,0.082,0.013,0.121c-0.08,0.313-0.148,0.625-0.209,0.946
			c-0.056,0.318-0.084,0.639-0.084,0.967c0,0.543,0.08,1.044,0.241,1.502c0.181,0.478,0.438,0.917,0.779,1.321
			c0.342,0.406,0.764,0.748,1.271,1.018c0.813,0.395,1.699,0.611,2.658,0.65c0.555,0.027,1.112-0.014,1.685-0.121
			c0.127-0.027,0.264-0.057,0.399-0.092s0.272-0.071,0.399-0.11c0.018-0.015,0.039-0.021,0.06-0.021s0.052-0.008,0.086-0.021
			c0.019-0.016,0.029-0.021,0.038-0.021c0.01,0,0.021-0.008,0.038-0.021c0.081-0.029,0.153-0.054,0.217-0.082
			c0.063-0.029,0.138-0.054,0.224-0.082c0.099-0.054,0.171-0.089,0.218-0.104c0.033-0.026,0.06-0.041,0.085-0.049
			c0.026-0.008,0.052-0.025,0.085-0.051h0.025c0.035-0.027,0.067-0.053,0.11-0.081c0.038-0.028,0.085-0.054,0.132-0.082l0.047-0.039
			c0.047-0.038,0.104-0.081,0.157-0.12c0.056-0.039,0.119-0.082,0.185-0.121c0.033-0.039,0.098-0.104,0.195-0.182
			c0.063-0.082,0.133-0.148,0.195-0.203l0.052-0.039c0.114-0.119,0.219-0.248,0.315-0.376s0.194-0.267,0.294-0.416
			c0.357-0.544,0.635-1.151,0.831-1.83c0.178-0.678,0.271-1.356,0.28-2.043c0.008-0.687-0.039-1.373-0.133-2.065
			c-0.132-1.045-0.345-2.076-0.646-3.091c-0.303-1.017-0.588-2.041-0.865-3.071c-0.034-0.135-0.063-0.238-0.099-0.306
			c-0.063,0.135-0.137,0.263-0.209,0.388c-0.071,0.121-0.147,0.252-0.229,0.387c-0.225,0.366-0.473,0.722-0.731,1.066
			c-0.261,0.344-0.546,0.683-0.854,1.006c-0.293,0.313-0.608,0.604-0.948,0.875c-0.343,0.27-0.708,0.521-1.102,0.752
			c-0.421,0.231-0.855,0.444-1.305,0.64c-0.446,0.196-0.928,0.316-1.447,0.355c-0.356,0.029-0.711,0.007-1.062-0.06
			c-0.351-0.068-0.679-0.188-0.988-0.366c-0.277-0.149-0.507-0.338-0.694-0.569c-0.188-0.231-0.327-0.476-0.427-0.731
			c-0.128-0.338-0.217-0.679-0.27-1.017c-0.047-0.338-0.063-0.686-0.047-1.038c0.035-0.771,0.154-1.525,0.367-2.257
			c0.225-0.814,0.528-1.6,0.903-2.36c0.179-0.352,0.371-0.697,0.57-1.038c0.205-0.338,0.443-0.665,0.722-0.978
			c0.242-0.299,0.51-0.583,0.805-0.853l0.314-0.263l0.047-0.039c0.18-0.121,0.272-0.181,0.282-0.181
			c0.008,0-0.076,0.053-0.257,0.163h0.024l0.146-0.121c0.146-0.106,0.291-0.206,0.426-0.295c0.137-0.089,0.291-0.174,0.451-0.256
			c0.035-0.014,0.11-0.046,0.229-0.103c0.124-0.054,0.248-0.1,0.379-0.132c0.134-0.032,0.244-0.042,0.344-0.032
			c0.098,0.014,0.145,0.067,0.145,0.164c0,0.096-0.039,0.185-0.111,0.273s-0.141,0.167-0.208,0.234
			c-0.1,0.082-0.201,0.16-0.308,0.235c-0.107,0.075-0.218,0.146-0.328,0.213l-0.024,0.021c-0.035,0.029-0.061,0.05-0.086,0.071
			s-0.051,0.042-0.086,0.071c-0.017,0.028-0.033,0.046-0.047,0.06c-0.018,0.014-0.033,0.036-0.047,0.061
			c-0.033,0.028-0.047,0.046-0.047,0.061c-0.114,0.121-0.217,0.245-0.307,0.366s-0.174,0.245-0.256,0.366
			c-0.323,0.501-0.602,1.013-0.831,1.536c-0.226,0.522-0.422,1.056-0.584,1.596c-0.213,0.718-0.322,1.425-0.341,2.115
			c-0.033,0.313-0.033,0.625,0,0.935c0.034,0.313,0.099,0.622,0.196,0.935c0.113,0.27,0.264,0.533,0.451,0.782
			c0.188,0.252,0.426,0.458,0.72,0.622c0.179,0.082,0.367,0.142,0.564,0.181c0.194,0.039,0.392,0.075,0.582,0.104
			c0.082,0,0.172,0,0.27-0.011c0.098-0.008,0.188-0.019,0.268-0.032l0.219-0.061c0.063-0.028,0.106-0.039,0.124-0.039h0.025
			l0.072-0.06c0.033-0.015,0.063-0.032,0.098-0.061h0.025c0.033-0.028,0.064-0.053,0.098-0.082c0.035-0.028,0.064-0.053,0.1-0.082
			h0.024c0.048-0.053,0.103-0.106,0.157-0.153c0.057-0.046,0.111-0.106,0.158-0.174c0.033-0.028,0.055-0.05,0.072-0.071
			c0.017-0.021,0.037-0.043,0.071-0.071l0.072-0.061c0.047-0.067,0.103-0.135,0.158-0.203c0.055-0.067,0.118-0.135,0.183-0.203
			l0.584-0.792c0.763-1.205,1.352-2.509,1.756-3.906c0.047-0.188,0.1-0.373,0.146-0.547c0.047-0.178,0.09-0.359,0.124-0.547
			c-0.064-0.395-0.111-0.786-0.133-1.18c-0.025-0.395-0.021-0.785,0.014-1.18c0.018-0.096,0.055-0.185,0.123-0.273
			c0.064-0.089,0.137-0.167,0.217-0.234c0.243-0.217,0.52-0.413,0.832-0.59c0.128-0.067,0.265-0.125,0.399-0.174
			c0.137-0.046,0.272-0.078,0.399-0.092c0.115-0.014,0.218,0.007,0.315,0.061c0.018,0.028,0.025,0.046,0.025,0.061
			s0.008,0.035,0.025,0.06c0.08,0.26,0.132,0.508,0.156,0.754c0.025,0.245,0.031,0.501,0.014,0.771
			c-0.018,0.121-0.029,0.242-0.038,0.355s-0.021,0.235-0.038,0.355c0.018,0.164,0.038,0.324,0.059,0.477
			c0.026,0.156,0.053,0.309,0.086,0.458c0.21,1.045,0.471,2.072,0.769,3.082c0.303,1.009,0.587,2.022,0.864,3.039h0.015V35.015z"/>
		<path d="M91.813,60.815c0.096-0.031,0.126-0.047,0.1-0.047C91.888,60.771,91.854,60.784,91.813,60.815z M90.979,53.237
			c-0.354-0.031-0.703-0.086-1.044-0.163c-0.346-0.078-0.689-0.14-1.044-0.185c-0.056,0.372-0.094,0.741-0.111,1.114
			c-0.017,0.373-0.03,0.743-0.03,1.117c0,0.524,0.038,1.048,0.111,1.565c0.072,0.521,0.197,1.035,0.363,1.547
			c0.094,0.248,0.196,0.486,0.307,0.722c0.109,0.231,0.251,0.459,0.417,0.676c0.149,0.187,0.308,0.373,0.474,0.56
			c0.166,0.185,0.371,0.34,0.613,0.465c0.094,0.031,0.188,0.061,0.276,0.093c0.094,0.032,0.188,0.054,0.276,0.071
			c0.056-0.062,0.106-0.125,0.153-0.187s0.09-0.124,0.124-0.184c0.371-0.605,0.66-1.257,0.865-1.952
			c0.018-0.032,0.028-0.071,0.028-0.117s0.009-0.085,0.03-0.117c0,0.047-0.018,0.1-0.057,0.163c0.019-0.03,0.03-0.053,0.03-0.069
			c0-0.018,0.009-0.033,0.03-0.047c0.055-0.23,0.174-0.427,0.361-0.58c0.147-0.123,0.298-0.244,0.448-0.357
			c0.147-0.118,0.313-0.214,0.502-0.292c0.129-0.079,0.272-0.144,0.431-0.199c0.157-0.054,0.311-0.089,0.46-0.103
			c0.072-0.016,0.163-0.008,0.265,0.023c0.104,0.032,0.145,0.094,0.123,0.186c-0.072,0.402-0.178,0.8-0.319,1.184
			c-0.141,0.389-0.319,0.762-0.545,1.116c-0.111,0.202-0.227,0.392-0.35,0.569c-0.119,0.178-0.256,0.352-0.404,0.521
			c-0.448,0.498-0.946,0.933-1.505,1.301c-0.314,0.218-0.674,0.416-1.073,0.595c-0.399,0.178-0.813,0.291-1.241,0.338
			c-0.519,0.061-1.022-0.047-1.503-0.326c-0.26-0.139-0.481-0.313-0.668-0.523c-0.188-0.209-0.354-0.423-0.502-0.64
			c-0.188-0.263-0.333-0.526-0.447-0.789c-0.111-0.263-0.213-0.526-0.307-0.789c-0.167-0.526-0.287-1.052-0.35-1.581
			c-0.064-0.525-0.098-1.063-0.098-1.604c0-0.59,0.034-1.17,0.098-1.742c0.063-0.572,0.153-1.147,0.264-1.721
			c0.128-0.604,0.277-1.201,0.447-1.787c0.166-0.59,0.362-1.176,0.583-1.768c0.094-0.263,0.196-0.521,0.307-0.777
			s0.221-0.517,0.333-0.778c0.111-0.231,0.222-0.47,0.332-0.708c0.111-0.241,0.243-0.469,0.392-0.686
			c0.038-0.062,0.068-0.121,0.098-0.175c0.031-0.054,0.061-0.112,0.099-0.174c0.166-0.265,0.4-0.502,0.698-0.708
			c0.299-0.21,0.605-0.376,0.921-0.501c0.039-0.015,0.106-0.039,0.209-0.071c0.104-0.031,0.209-0.054,0.319-0.07
			c0.11-0.015,0.209-0.008,0.294,0.024c0.085,0.031,0.123,0.093,0.123,0.185c0,0.033-0.004,0.059-0.013,0.082
			c-0.009,0.024-0.013,0.051-0.013,0.082c-0.018,0.25-0.043,0.506-0.067,0.768c-0.03,0.264-0.107,0.514-0.234,0.744
			c-0.188,0.326-0.473,0.597-0.864,0.813c-0.188,0.42-0.352,0.844-0.486,1.266c-0.142,0.428-0.272,0.857-0.404,1.291
			c-0.073,0.229-0.141,0.465-0.196,0.697c-0.055,0.229-0.11,0.465-0.166,0.694l0.501-0.139c0.354-0.06,0.708-0.084,1.059-0.07
			c0.354,0.015,0.707,0.062,1.062,0.14c0.3,0.045,0.589,0.096,0.878,0.151c0.284,0.054,0.588,0.097,0.903,0.129
			c0.094,0,0.195-0.004,0.307-0.012c0.11-0.007,0.213-0.019,0.308-0.035c0.017,0,0.038,0,0.056-0.011
			c0.018-0.008,0.037-0.012,0.055-0.012c0.149-0.078,0.295-0.155,0.431-0.229c0.141-0.078,0.295-0.132,0.462-0.164
			c0.094-0.03,0.198-0.053,0.317-0.069c0.121-0.016,0.209,0.014,0.266,0.092c0.072,0.078,0.085,0.164,0.029,0.256
			c-0.056,0.093-0.11,0.171-0.166,0.229c-0.094,0.125-0.205,0.238-0.332,0.339c-0.129,0.1-0.271,0.198-0.419,0.291
			c-0.392,0.277-0.817,0.506-1.28,0.676c-0.151,0.061-0.305,0.121-0.463,0.175c-0.156,0.054-0.311,0.096-0.459,0.128
			c-0.575,0.092-1.134,0.109-1.671,0.046L90.979,53.237z"/>
		<path d="M108.782,60.674v0.931c0,0.311,0.047,0.619,0.141,0.933c-0.018,0.125-0.072,0.249-0.166,0.373
			c-0.038,0.032-0.072,0.063-0.109,0.104c-0.039,0.038-0.072,0.073-0.111,0.104c-0.148,0.139-0.304,0.262-0.46,0.373
			c-0.158,0.105-0.328,0.209-0.517,0.302c-0.149,0.078-0.299,0.142-0.446,0.199c-0.149,0.054-0.308,0.096-0.475,0.128
			c-0.11,0.014-0.233-0.016-0.362-0.094c0-0.031-0.004-0.053-0.013-0.07c-0.008-0.014-0.013-0.031-0.013-0.046
			c-0.094-0.31-0.145-0.618-0.153-0.931c-0.008-0.311-0.013-0.619-0.013-0.933c0.017-0.42,0.033-0.832,0.042-1.244
			c0.01-0.407,0.034-0.823,0.067-1.243c0.039-0.914,0.039-1.813,0-2.697c-0.037-0.402-0.084-0.807-0.141-1.209
			c-0.055-0.402-0.148-0.801-0.275-1.188c-0.133-0.354-0.308-0.696-0.528-1.022c-0.223-0.326-0.528-0.599-0.922-0.814
			c-0.354-0.184-0.754-0.302-1.196-0.348c-0.057,0-0.109,0.004-0.166,0.011s-0.12,0.011-0.195,0.011
			c-0.018,0.031-0.056,0.07-0.111,0.117c-0.016,0.031-0.033,0.05-0.043,0.057c-0.008,0.008-0.024,0.028-0.041,0.058
			c-0.094,0.11-0.18,0.213-0.252,0.313c-0.072,0.1-0.148,0.206-0.221,0.313c-0.428,0.65-0.776,1.328-1.046,2.033
			c-0.269,0.703-0.507,1.414-0.711,2.125c-0.038,0.109-0.072,0.242-0.109,0.396c-0.15,0.572-0.286,1.154-0.405,1.741
			c-0.12,0.59-0.209,1.177-0.266,1.768c-0.017,0.123-0.063,0.229-0.141,0.325c-0.072,0.095-0.156,0.179-0.251,0.256
			c-0.149,0.14-0.303,0.265-0.46,0.374c-0.156,0.11-0.329,0.211-0.517,0.303c-0.133,0.078-0.272,0.143-0.432,0.198
			c-0.156,0.054-0.318,0.089-0.484,0.104c-0.148,0.031-0.26,0.007-0.332-0.071c-0.018-0.032-0.029-0.054-0.029-0.071
			c0-0.017-0.009-0.039-0.029-0.07c-0.112-0.512-0.196-1.053-0.253-1.629c-0.166-1.438-0.265-2.879-0.294-4.311
			c-0.028-1.434-0.137-2.873-0.319-4.313c-0.056-0.479-0.127-0.952-0.222-1.418c-0.094-0.465-0.188-0.938-0.276-1.418
			c-0.037-0.25-0.072-0.494-0.109-0.744c-0.039-0.248-0.064-0.504-0.086-0.768c-0.038-0.479,0-0.912,0.111-1.301
			c-0.019,0-0.03,0.016-0.03,0.046c0-0.03,0.009-0.046,0.03-0.046c0-0.061,0.008-0.105,0.028-0.139c0,0.015,0,0.027-0.013,0.035
			c-0.01,0.006-0.014,0.021-0.014,0.035c0.039-0.078,0.068-0.16,0.099-0.246c0.03-0.084,0.062-0.166,0.099-0.244
			c0.11-0.172,0.238-0.33,0.375-0.477c0.141-0.146,0.293-0.292,0.461-0.431c0.147-0.124,0.307-0.228,0.474-0.313
			c0.166-0.084,0.332-0.166,0.502-0.244c0.111-0.047,0.238-0.09,0.375-0.129c0.141-0.039,0.271-0.043,0.404-0.011
			c0.094,0.015,0.147,0.054,0.166,0.117c0.018,0.062,0.008,0.128-0.029,0.198c-0.039,0.07-0.086,0.14-0.141,0.21
			c-0.057,0.071-0.104,0.129-0.142,0.175c-0.019,0.031-0.034,0.057-0.043,0.081c-0.008,0.024-0.024,0.051-0.043,0.082
			c-0.056,0.327-0.084,0.644-0.084,0.952c0.017,0.513,0.071,1.021,0.166,1.521c0.094,0.504,0.187,1.002,0.276,1.5
			c0.11,0.465,0.196,0.898,0.251,1.301c0.057,0.326,0.099,0.654,0.123,0.988c0.03,0.334,0.062,0.66,0.1,0.988
			c0.038,0.419,0.063,0.834,0.085,1.254c0.019,0.42,0.039,0.846,0.056,1.279c0.26-0.525,0.536-1.006,0.836-1.439
			c0.26-0.355,0.546-0.695,0.849-1.023c0.306-0.325,0.643-0.617,1.018-0.885c0.276-0.186,0.567-0.363,0.865-0.533
			s0.612-0.315,0.945-0.44c0.223-0.078,0.457-0.151,0.698-0.22c0.242-0.071,0.49-0.104,0.755-0.104
			c0.408-0.015,0.81,0.035,1.196,0.152c0.393,0.117,0.742,0.283,1.058,0.501c0.315,0.231,0.565,0.501,0.754,0.804
			c0.188,0.303,0.332,0.615,0.447,0.941c0.3,0.854,0.462,1.721,0.486,2.602c0.028,0.883,0.021,1.768-0.015,2.648
			c-0.017,0.42-0.037,0.836-0.055,1.255s-0.029,0.835-0.029,1.255V60.674z"/>
		<path d="M127.313,60.417c-0.132,0.078-0.179,0.111-0.142,0.094c0.039-0.016,0.072-0.039,0.111-0.072l0.029-0.023L127.313,60.417
			L127.313,60.417z M116.141,57.329c0,0-0.038,0.007-0.056,0.023c-0.018,0-0.029,0.004-0.029,0.012s-0.009,0.011-0.029,0.011
			l0.055-0.024c0,0,0.031-0.008,0.031-0.024h0.028V57.329z M114.496,54.702c-0.149,0.512-0.243,1.027-0.276,1.547
			c-0.039,0.518-0.039,1.041,0,1.566c0.166-0.062,0.323-0.101,0.474-0.117c0.094,0,0.174,0,0.25-0.01
			c0.073-0.008,0.158-0.02,0.253-0.037c0.039-0.014,0.084-0.027,0.141-0.035c0.055-0.006,0.102-0.018,0.141-0.035
			c0.038-0.018,0.063-0.025,0.085-0.025s0.048-0.006,0.085-0.023c0.072-0.032,0.119-0.047,0.141-0.047
			c0.039-0.014,0.061-0.027,0.068-0.034c0.008-0.009,0.034-0.019,0.068-0.036c0.038,0,0.072-0.016,0.109-0.046
			c0.018-0.015,0.039-0.025,0.057-0.025c0.017-0.03,0.063-0.061,0.141-0.092c0.038-0.032,0.068-0.054,0.098-0.071
			c0.029-0.015,0.061-0.039,0.099-0.07c0.019-0.014,0.03-0.028,0.03-0.035c0-0.008,0.009-0.018,0.029-0.035
			c0.037-0.016,0.06-0.033,0.067-0.047s0.034-0.039,0.067-0.071c0.04-0.032,0.073-0.063,0.111-0.103
			c0.039-0.039,0.072-0.075,0.111-0.104c0-0.014,0-0.024,0.013-0.024c0.01,0,0.014-0.006,0.014-0.024
			c0.203-0.217,0.399-0.466,0.582-0.743c0.299-0.447,0.512-0.893,0.641-1.324c0.055-0.218,0.089-0.435,0.098-0.65
			c0.008-0.219-0.014-0.436-0.068-0.651c-0.11-0.262-0.289-0.473-0.527-0.629c-0.094-0.046-0.191-0.078-0.294-0.092
			c-0.103-0.015-0.209-0.032-0.319-0.048c-0.093,0-0.191,0.005-0.294,0.013c-0.104,0.006-0.199,0.021-0.294,0.035l-0.332,0.069
			c-0.057,0.016-0.12,0.039-0.196,0.072h-0.029c-0.038,0.014-0.068,0.031-0.098,0.045c-0.029,0.016-0.061,0.033-0.099,0.047
			c-0.019,0-0.035,0.004-0.043,0.012c-0.009,0.007-0.024,0.011-0.043,0.011l-0.056,0.046c-0.039,0.046-0.086,0.085-0.141,0.118
			c-0.039,0.06-0.072,0.108-0.111,0.139c-0.071,0.123-0.141,0.209-0.194,0.257c-0.135,0.217-0.239,0.434-0.321,0.649
			c-0.084,0.217-0.161,0.435-0.237,0.649L114.496,54.702z M129.708,59.306c0.057,0.078,0.057,0.163,0,0.256
			c-0.056,0.092-0.103,0.17-0.141,0.23c-0.132,0.171-0.266,0.324-0.404,0.455c-0.141,0.131-0.293,0.268-0.459,0.404l-0.111,0.094
			l-0.419,0.277c-0.037,0.03-0.071,0.057-0.109,0.08c-0.039,0.024-0.072,0.051-0.111,0.082c-0.541,0.342-1.148,0.598-1.841,0.769
			c-0.48,0.124-0.938,0.185-1.362,0.185c-0.521,0.016-1.035-0.01-1.548-0.082c-0.512-0.07-1.01-0.158-1.49-0.266
			c-0.542-0.125-1.064-0.264-1.572-0.42c-0.512-0.156-1.025-0.309-1.546-0.465c-0.504-0.172-1.002-0.336-1.505-0.488
			c-0.504-0.156-1.016-0.301-1.534-0.439c-0.204-0.061-0.399-0.117-0.584-0.164c-0.188-0.047-0.379-0.092-0.583-0.139
			c0.071,0.512,0.151,1.023,0.237,1.535s0.162,1.031,0.238,1.557c0.019,0.094-0.024,0.199-0.123,0.313
			c-0.103,0.116-0.191,0.206-0.265,0.267c-0.149,0.139-0.302,0.264-0.46,0.373c-0.156,0.106-0.328,0.209-0.516,0.303
			c-0.133,0.078-0.272,0.143-0.431,0.199c-0.158,0.053-0.32,0.088-0.486,0.103c-0.148,0.032-0.26,0.008-0.332-0.07
			c-0.148-0.373-0.271-0.754-0.375-1.138c-0.102-0.389-0.19-0.782-0.265-1.184c-0.095-0.697-0.148-1.391-0.166-2.08
			c-0.018-0.688-0.037-1.383-0.056-2.08v-1.498c0-0.506-0.047-1.004-0.142-1.5c-0.038-0.375-0.09-0.739-0.152-1.105
			s-0.115-0.732-0.152-1.105c-0.019-0.155-0.035-0.306-0.043-0.455c-0.009-0.146-0.005-0.297,0.014-0.455
			c0.017-0.077,0.037-0.152,0.055-0.219c0.018-0.072,0.047-0.144,0.086-0.222c0.094-0.139,0.191-0.264,0.293-0.373
			c0.104-0.106,0.227-0.217,0.376-0.327c0.111-0.093,0.217-0.171,0.318-0.23c0.103-0.061,0.219-0.131,0.35-0.209
			c0.26-0.172,0.559-0.277,0.891-0.328c0.149-0.031,0.29-0.023,0.419,0.025c0.127,0.078,0.261,0.164,0.392,0.256
			c0.071,0.061,0.086,0.148,0.03,0.256c-0.057,0.109-0.104,0.178-0.142,0.21c-0.149,0.171-0.307,0.315-0.473,0.44
			c0.017,0.031,0.03,0.077,0.03,0.139c0.017,0.354,0.072,0.736,0.166,1.138c0.017,0.11,0.033,0.217,0.043,0.327
			c0.008,0.109,0.033,0.224,0.066,0.348c0.038-0.031,0.073-0.061,0.11-0.092l0.11-0.093c0.261-0.218,0.549-0.423,0.864-0.614
			c0.316-0.191,0.631-0.37,0.946-0.523c0.315-0.139,0.635-0.266,0.964-0.383c0.323-0.117,0.664-0.214,1.019-0.291
			c0.408-0.078,0.817-0.125,1.228-0.14s0.788,0.085,1.144,0.302c0.241,0.139,0.411,0.331,0.516,0.568
			c0.102,0.242,0.16,0.477,0.183,0.708c0.017,0.31-0.013,0.626-0.099,0.942c-0.084,0.315-0.199,0.625-0.35,0.916
			c-0.354,0.762-0.811,1.426-1.362,1.998c-0.315,0.326-0.648,0.637-0.989,0.932c-0.346,0.295-0.711,0.572-1.1,0.835
			c0.094,0.032,0.229,0.061,0.418,0.093c0.502,0.124,0.997,0.264,1.491,0.419c0.489,0.157,0.979,0.31,1.462,0.466
			c0.537,0.17,1.063,0.334,1.571,0.486c0.512,0.156,1.035,0.303,1.572,0.441c0.465,0.125,0.934,0.228,1.405,0.313
			c0.475,0.086,0.95,0.143,1.437,0.174c0.166,0,0.338,0,0.517-0.01c0.176-0.008,0.357-0.029,0.545-0.057h0.057
			c0.188-0.203,0.408-0.39,0.668-0.56c0.149-0.092,0.308-0.178,0.474-0.256s0.332-0.14,0.504-0.187
			c0.092-0.03,0.199-0.053,0.318-0.069c0.119-0.015,0.217,0.014,0.294,0.092L129.708,59.306z"/>
		<path d="M136.423,60.651c-0.037,0.015-0.071,0.029-0.11,0.035C136.275,60.694,136.313,60.688,136.423,60.651z M128.542,54.515
			c-0.242,0.4-0.439,0.834-0.585,1.301c-0.037,0.123-0.063,0.244-0.084,0.357c-0.019,0.117-0.039,0.238-0.057,0.359
			c0.094-0.061,0.176-0.117,0.251-0.164c0.072-0.045,0.159-0.092,0.253-0.139c0.11-0.061,0.218-0.113,0.319-0.152
			s0.208-0.074,0.318-0.104c0.148-0.031,0.242-0.046,0.277-0.046c0.332-0.061,0.665-0.106,0.988-0.139
			c0.323-0.033,0.655-0.078,0.987-0.14c0.094-0.031,0.17-0.053,0.238-0.071c0.063-0.015,0.138-0.039,0.209-0.07
			c0.019,0,0.064-0.014,0.142-0.047c0.299-0.092,0.604-0.209,0.92-0.349c0.148-0.047,0.269-0.1,0.361-0.163
			c0.057-0.015,0.12-0.039,0.197-0.07c0.095-0.062,0.195-0.117,0.308-0.164c0.109-0.046,0.213-0.1,0.307-0.163
			c0.072-0.015,0.156-0.061,0.251-0.139c0.204-0.105,0.379-0.217,0.528-0.327c0.037-0.015,0.067-0.03,0.098-0.047
			c0.029-0.015,0.061-0.039,0.099-0.07c0.072-0.061,0.145-0.116,0.209-0.163s0.146-0.101,0.238-0.164
			c0.018-0.031,0.064-0.078,0.141-0.139c0.039-0.031,0.061-0.054,0.068-0.07c0.008-0.015,0.034-0.039,0.068-0.07
			c0.072-0.094,0.127-0.172,0.166-0.231c0.037-0.032,0.06-0.071,0.067-0.116c0.009-0.047,0.021-0.086,0.042-0.117
			c0.018-0.106,0.018-0.219,0-0.328c-0.056-0.139-0.179-0.264-0.361-0.373c-0.242-0.106-0.502-0.182-0.78-0.221
			c-0.276-0.039-0.549-0.063-0.809-0.082c-0.597-0.031-1.135,0-1.616,0.094c-0.037,0-0.059,0.003-0.066,0.011
			c-0.01,0.007-0.025,0.011-0.043,0.011c-0.133,0.032-0.252,0.061-0.361,0.094c-0.111,0.03-0.223,0.061-0.333,0.092
			c-0.018,0-0.039,0.008-0.057,0.024c-0.038,0.015-0.068,0.027-0.098,0.035c-0.029,0.007-0.061,0.021-0.098,0.035
			c-0.057,0.032-0.107,0.054-0.154,0.071c-0.047,0.015-0.098,0.031-0.152,0.045c-0.039,0.016-0.064,0.033-0.086,0.048
			c-0.021,0.014-0.047,0.03-0.085,0.046l-0.251,0.139c-0.072,0.032-0.119,0.062-0.141,0.094l-0.252,0.139
			c-0.037,0.031-0.063,0.049-0.084,0.057c-0.019,0.008-0.047,0.028-0.086,0.057l-0.253,0.211l-0.141,0.117
			c-0.038,0.045-0.085,0.092-0.141,0.139c-0.057,0.046-0.104,0.085-0.141,0.117c-0.018,0.031-0.057,0.07-0.111,0.117
			c-0.039,0.045-0.08,0.092-0.123,0.139c-0.047,0.046-0.09,0.1-0.123,0.162c-0.072,0.078-0.142,0.16-0.196,0.246
			c-0.056,0.086-0.119,0.174-0.195,0.267L128.542,54.515z M142.052,57.492c0.058,0.077,0.058,0.163,0,0.256
			c-0.055,0.093-0.102,0.171-0.141,0.231c-0.369,0.479-0.792,0.92-1.271,1.324c-0.473,0.401-0.979,0.782-1.517,1.139
			c-0.52,0.342-1.069,0.649-1.645,0.932c-0.575,0.277-1.174,0.525-1.782,0.742c-0.612,0.217-1.234,0.395-1.865,0.533
			s-1.282,0.225-1.95,0.256c-0.561,0.031-1.122,0.011-1.689-0.057c-0.566-0.072-1.111-0.207-1.632-0.406
			c-1.096-0.434-1.969-1.063-2.621-1.883c-0.63-0.854-0.89-1.773-0.778-2.767c0.055-0.543,0.2-1.063,0.43-1.558
			c0.23-0.493,0.523-0.967,0.877-1.418c0.411-0.543,0.884-1.045,1.425-1.51c0.536-0.467,1.116-0.893,1.726-1.281
			c0.593-0.373,1.231-0.707,1.909-1.008c0.679-0.303,1.38-0.531,2.105-0.688c0.314-0.061,0.631-0.105,0.945-0.139
			c0.315-0.031,0.632-0.047,0.946-0.047c0.26,0,0.52,0.008,0.779,0.024c0.261,0.017,0.521,0.047,0.78,0.095
			c0.392,0.077,0.715,0.201,0.975,0.373c0.224,0.123,0.362,0.309,0.419,0.557c0.037,0.125,0.047,0.246,0.029,0.358
			c-0.018,0.117-0.047,0.229-0.086,0.339c-0.109,0.276-0.29,0.551-0.528,0.813c-0.314,0.387-0.678,0.741-1.086,1.069
			c-0.409,0.326-0.827,0.637-1.253,0.932c-0.408,0.277-0.831,0.54-1.267,0.777c-0.438,0.242-0.886,0.47-1.351,0.687
			c-0.48,0.218-0.982,0.429-1.504,0.63c-0.521,0.202-1.048,0.381-1.59,0.533c-0.315,0.078-0.635,0.143-0.963,0.198
			c-0.323,0.054-0.655,0.097-0.988,0.129c0.038,0.124,0.063,0.209,0.085,0.256c0.188,0.512,0.485,0.983,0.907,1.418
			c0.418,0.435,0.896,0.8,1.438,1.092c0.427,0.218,0.877,0.38,1.352,0.486c0.473,0.11,0.961,0.178,1.461,0.209
			c0.669,0.032,1.337-0.015,2.008-0.14c0.148-0.03,0.289-0.06,0.417-0.092c0.128-0.031,0.269-0.07,0.417-0.117
			c0.094-0.014,0.23-0.053,0.418-0.116c0.037,0,0.059,0,0.066-0.011c0.008-0.012,0.021-0.012,0.044-0.012
			c0.149-0.047,0.28-0.096,0.404-0.152c0.119-0.054,0.247-0.113,0.375-0.174c0.018,0,0.034,0,0.042-0.012
			c0.009-0.007,0.021-0.01,0.043-0.01c0.072-0.033,0.142-0.061,0.195-0.094c0.058-0.031,0.11-0.061,0.167-0.092
			c0.038-0.031,0.085-0.054,0.141-0.07c0.057-0.016,0.104-0.039,0.141-0.072c0.018-0.014,0.039-0.027,0.057-0.035
			c0.016-0.007,0.037-0.018,0.055-0.035l0.333-0.21l0.057-0.046c0.072-0.047,0.145-0.096,0.207-0.148
			c0.064-0.055,0.138-0.104,0.209-0.153c0.039-0.031,0.068-0.062,0.099-0.093s0.062-0.061,0.099-0.092
			c0.11-0.094,0.196-0.172,0.252-0.231c0.039-0.031,0.06-0.054,0.067-0.07c0.008-0.015,0.033-0.038,0.067-0.071
			c0.039-0.031,0.095-0.092,0.166-0.185c0.095-0.125,0.21-0.246,0.351-0.358c0.141-0.117,0.281-0.222,0.432-0.313
			c0.147-0.093,0.307-0.179,0.473-0.256c0.166-0.078,0.332-0.14,0.502-0.187c0.095-0.031,0.2-0.053,0.321-0.07
			c0.119-0.014,0.217,0.015,0.293,0.093L142.052,57.492z"/>
		<path d="M147.626,61.093c0.095-0.014,0.171-0.031,0.238-0.047c0.063-0.014,0.137-0.039,0.21-0.07
			c0.056-0.014,0.106-0.029,0.153-0.035c0.047-0.008,0.099-0.019,0.152-0.035l0.111-0.047l0.417-0.139c0,0,0.009-0.025,0.03-0.025
			c-0.243-0.217-0.486-0.426-0.737-0.629c-0.252-0.203-0.508-0.395-0.768-0.578c-0.314-0.231-0.647-0.455-0.988-0.661
			c-0.347-0.21-0.703-0.416-1.073-0.615c-0.447-0.217-0.917-0.423-1.407-0.614c-0.494-0.191-0.997-0.313-1.517-0.359
			c-0.039,0.094-0.057,0.156-0.057,0.186c-0.092,0.311-0.148,0.622-0.166,0.941c-0.016,0.316,0.018,0.633,0.111,0.941
			c0.242,0.592,0.668,1.045,1.282,1.372c0.354,0.171,0.725,0.3,1.116,0.384c0.393,0.086,0.779,0.137,1.172,0.153
			c0.56,0.015,1.134-0.024,1.726-0.116L147.626,61.093z M141.72,53.862c0,0,0.01-0.023,0.029-0.023
			c-0.109,0.078-0.152,0.109-0.123,0.092c0.03-0.014,0.062-0.039,0.098-0.07L141.72,53.862z M152.445,57.421
			c0.018,0.078,0.034,0.16,0.043,0.246c0.008,0.084,0.004,0.174-0.013,0.266c-0.018,0.11-0.039,0.213-0.057,0.313
			s-0.047,0.198-0.085,0.292c-0.11,0.4-0.315,0.789-0.612,1.162c-0.039,0.061-0.086,0.124-0.142,0.185
			c-0.056,0.062-0.11,0.117-0.166,0.164c-0.223,0.263-0.475,0.498-0.755,0.696c-0.243,0.201-0.493,0.384-0.753,0.548
			c-0.261,0.163-0.53,0.323-0.812,0.478c-0.427,0.229-0.881,0.434-1.362,0.604c-0.482,0.171-0.967,0.311-1.45,0.42
			c-0.48,0.105-0.975,0.178-1.477,0.209c-0.427,0.032-0.85,0.036-1.268,0.012c-0.417-0.025-0.831-0.09-1.24-0.199
			c-0.353-0.078-0.688-0.194-1.019-0.349c-0.323-0.157-0.618-0.349-0.878-0.583c-0.261-0.249-0.459-0.521-0.601-0.824
			s-0.228-0.615-0.265-0.941c-0.018-0.419,0.029-0.86,0.141-1.325c0.072-0.231,0.157-0.459,0.251-0.676
			c0.095-0.218,0.213-0.435,0.363-0.65c0.221-0.295,0.484-0.563,0.791-0.804c0.307-0.241,0.636-0.454,0.989-0.641
			c0.26-0.139,0.537-0.26,0.835-0.358c0.299-0.099,0.605-0.166,0.921-0.199c0.37-0.045,0.753-0.039,1.143,0.024
			c0.392,0.062,0.771,0.156,1.142,0.277c0.427,0.139,0.836,0.307,1.229,0.502s0.771,0.397,1.142,0.614
			c0.129,0.078,0.261,0.159,0.393,0.245c0.128,0.086,0.268,0.167,0.418,0.245V56.63c-0.018-0.387-0.047-0.777-0.086-1.172
			c-0.038-0.395-0.119-0.779-0.251-1.152c-0.132-0.342-0.298-0.654-0.503-0.941c-0.204-0.288-0.481-0.529-0.835-0.731
			c-0.48-0.202-0.984-0.315-1.505-0.349c-0.094-0.016-0.191-0.018-0.293-0.012c-0.104,0.008-0.201,0.021-0.295,0.035
			c-0.094,0.033-0.17,0.051-0.238,0.059c-0.063,0.007-0.145,0.027-0.238,0.057c-0.055,0.032-0.115,0.051-0.184,0.059
			c-0.063,0.006-0.124,0.026-0.185,0.057c-0.017,0-0.033,0.003-0.041,0.01c-0.01,0.008-0.035,0.012-0.068,0.012
			c-0.243,0.078-0.479,0.166-0.711,0.267c-0.234,0.1-0.469,0.198-0.713,0.292l-0.332,0.138l-0.056,0.047
			c-0.205,0.093-0.418,0.195-0.64,0.304c-0.055,0.061-0.114,0.119-0.185,0.174c-0.063,0.053-0.135,0.113-0.207,0.174
			c-0.149,0.109-0.304,0.21-0.462,0.303c-0.157,0.092-0.328,0.178-0.516,0.256c-0.203,0.078-0.392,0.124-0.558,0.139h-0.222
			c-0.072-0.032-0.123-0.057-0.152-0.082c-0.031-0.024-0.044-0.073-0.044-0.151c0-0.079,0.021-0.153,0.069-0.222
			c0.047-0.07,0.088-0.129,0.123-0.174c0.071-0.125,0.194-0.256,0.36-0.395l0.308-0.257c0.071-0.046,0.141-0.089,0.195-0.128
			s0.119-0.082,0.196-0.129c0.055-0.045,0.103-0.077,0.141-0.092c0.11-0.078,0.226-0.146,0.35-0.209
			c0.121-0.062,0.24-0.133,0.351-0.211c0.149-0.078,0.308-0.16,0.474-0.244c0.166-0.086,0.332-0.168,0.502-0.246
			c0.559-0.262,1.124-0.512,1.7-0.742c0.575-0.23,1.171-0.434,1.78-0.604c0.244-0.08,0.487-0.144,0.737-0.199
			c0.252-0.055,0.508-0.082,0.768-0.082s0.524,0.014,0.792,0.045c0.27,0.033,0.533,0.086,0.793,0.164
			c0.427,0.125,0.788,0.307,1.087,0.548s0.549,0.522,0.754,0.85c0.205,0.354,0.354,0.731,0.448,1.126
			c0.093,0.395,0.156,0.793,0.195,1.199c0.039,0.465,0.051,0.932,0.043,1.393c-0.01,0.467-0.025,0.938-0.043,1.418
			c0.148-0.031,0.271-0.039,0.375-0.023c0.102,0.015,0.152,0.085,0.152,0.21L152.445,57.421z"/>
		<path d="M162.562,60.278c0.039-0.014,0.061-0.027,0.067-0.035c0.011-0.008,0.035-0.018,0.067-0.035l-0.166-1.184
			c-0.109-0.711-0.245-1.422-0.403-2.125c-0.158-0.705-0.356-1.408-0.601-2.105l-0.166-0.486c-0.111-0.277-0.239-0.559-0.376-0.834
			c-0.141-0.277-0.303-0.553-0.485-0.813c-0.132-0.187-0.272-0.363-0.431-0.533c-0.157-0.172-0.35-0.315-0.57-0.44
			c-0.188-0.078-0.394-0.131-0.612-0.164h-0.142c-0.039,0.033-0.056,0.061-0.056,0.093l-0.252,0.21
			c-0.018,0.031-0.047,0.066-0.086,0.104c-0.037,0.039-0.067,0.07-0.098,0.092c-0.029,0.025-0.033,0.025-0.013,0
			c0.017-0.024,0.071-0.082,0.166-0.174c-0.038,0.062-0.085,0.117-0.142,0.163c-0.056,0.046-0.103,0.093-0.141,0.14
			c-0.018,0.031-0.047,0.061-0.085,0.093c-0.243,0.276-0.436,0.543-0.585,0.788c-0.597,0.914-1.029,1.878-1.309,2.884
			c-0.148,0.543-0.246,1.103-0.293,1.674c-0.047,0.572,0.013,1.131,0.183,1.674c0.129,0.343,0.313,0.65,0.546,0.933
			c0.229,0.277,0.524,0.512,0.878,0.695c0.094,0.062,0.195,0.114,0.307,0.153s0.223,0.074,0.333,0.104s0.227,0.053,0.35,0.069
			c0.119,0.015,0.238,0.032,0.35,0.048c0.48,0,0.913-0.033,1.283-0.095c0.166-0.045,0.337-0.092,0.515-0.138
			c0.176-0.047,0.35-0.094,0.516-0.139c0.019,0,0.039-0.008,0.057-0.024c0.057-0.015,0.105-0.033,0.152-0.048
			c0.049-0.014,0.1-0.038,0.155-0.069c0.094-0.033,0.19-0.063,0.293-0.104c0.103-0.039,0.199-0.082,0.293-0.129
			c0.039-0.014,0.062-0.023,0.068-0.023c0.01,0,0.035-0.008,0.068-0.023c0.056-0.033,0.115-0.062,0.184-0.094
			c0.063-0.031,0.123-0.061,0.184-0.093L162.562,60.278z M168.358,56.024c0.094,0.031,0.145,0.082,0.151,0.151
			c0.009,0.072-0.004,0.136-0.042,0.199c-0.188,0.42-0.431,0.812-0.737,1.174c-0.308,0.365-0.635,0.707-0.988,1.033
			c-0.165,0.157-0.34,0.312-0.517,0.467c-0.175,0.156-0.365,0.302-0.57,0.44c0.039,0.714,0.039,1.418,0,2.113
			c-0.017,0.111-0.063,0.215-0.141,0.313c-0.072,0.101-0.156,0.188-0.251,0.269c-0.149,0.139-0.303,0.262-0.461,0.373
			c-0.157,0.105-0.328,0.209-0.516,0.303c-0.057,0.031-0.153,0.074-0.294,0.127c-0.142,0.054-0.285,0.1-0.431,0.139
			c-0.148,0.039-0.285,0.05-0.404,0.035c-0.119-0.014-0.184-0.084-0.184-0.209c0-0.061-0.004-0.121-0.014-0.174
			c-0.009-0.055-0.013-0.114-0.013-0.176c-0.019-0.217-0.039-0.437-0.057-0.66c-0.017-0.225-0.037-0.444-0.056-0.662
			c-0.521,0.264-1.043,0.51-1.572,0.732c-0.527,0.223-1.072,0.424-1.626,0.594c-0.56,0.172-1.134,0.299-1.728,0.385
			c-0.598,0.086-1.188,0.089-1.785,0.011c-0.242-0.032-0.478-0.097-0.711-0.199c-0.233-0.1-0.451-0.214-0.656-0.338
			c-0.299-0.171-0.584-0.419-0.865-0.743c-0.242-0.326-0.416-0.678-0.527-1.059c-0.11-0.381-0.174-0.764-0.195-1.152
			c-0.018-0.447,0.008-0.892,0.085-1.324c0.072-0.435,0.175-0.867,0.308-1.302c0.127-0.401,0.275-0.808,0.445-1.208
			c0.168-0.402,0.363-0.801,0.584-1.188c0.13-0.203,0.257-0.398,0.376-0.594c0.119-0.191,0.256-0.392,0.404-0.595l0.332-0.42
			l0.166-0.209c0.057-0.047,0.107-0.093,0.154-0.139c0.047-0.048,0.089-0.093,0.123-0.14l0.055-0.047v-0.023
			c0.372-0.401,0.776-0.778,1.211-1.127c0.435-0.35,0.926-0.653,1.462-0.918c0.37-0.17,0.774-0.319,1.215-0.454
			c0.434-0.132,0.868-0.152,1.295-0.058c0.261,0.062,0.464,0.139,0.613,0.231c-0.038-0.513-0.067-1.024-0.099-1.536
			c-0.03-0.512-0.041-1.023-0.041-1.535c-0.094-0.047-0.142-0.117-0.142-0.209c0-0.172,0.013-0.35,0.042-0.533
			c0.03-0.186,0.061-0.373,0.1-0.559c0.017-0.092,0.028-0.182,0.028-0.268v-0.313c0.017-0.078,0.052-0.145,0.099-0.209
			c0.047-0.061,0.098-0.132,0.152-0.21c0.038-0.032,0.061-0.054,0.068-0.071c0.009-0.014,0.033-0.031,0.066-0.046
			c0.261-0.263,0.566-0.479,0.921-0.649c0.039-0.016,0.125-0.055,0.266-0.117c0.141-0.061,0.29-0.113,0.447-0.152
			c0.156-0.039,0.298-0.053,0.416-0.046c0.119,0.007,0.185,0.075,0.185,0.198c-0.039,1.484,0,2.957,0.124,4.402
			c0.119,1.451,0.265,2.912,0.431,4.383c0.094,0.914,0.191,1.816,0.295,2.709c0.102,0.894,0.183,1.796,0.237,2.709
			c0.038-0.047,0.063-0.09,0.085-0.129c0.018-0.039,0.047-0.082,0.086-0.127c0.094-0.125,0.148-0.225,0.166-0.303
			c0.071-0.125,0.165-0.246,0.276-0.359c0.111-0.116,0.222-0.213,0.333-0.291c0.147-0.125,0.307-0.23,0.473-0.326
			c0.166-0.094,0.345-0.178,0.527-0.256c0.11-0.047,0.243-0.09,0.394-0.129c0.148-0.039,0.289-0.043,0.417-0.01L168.358,56.024z"/>
		<path d="M169.751,58.466c0.055-0.031,0.075-0.046,0.067-0.046S169.785,58.435,169.751,58.466z M177.971,58.676
			c0.072,0.419,0.013,0.821-0.186,1.208c-0.194,0.389-0.469,0.729-0.82,1.023c-0.707,0.604-1.487,1.078-2.34,1.419
			c-0.371,0.155-0.745,0.276-1.129,0.373c-0.379,0.093-0.769,0.171-1.155,0.231c-0.536,0.092-1.077,0.12-1.614,0.081
			c-0.541-0.038-1.048-0.153-1.534-0.338c-0.392-0.171-0.758-0.373-1.099-0.604c-0.347-0.23-0.619-0.519-0.822-0.859
			c-0.188-0.342-0.277-0.664-0.277-0.979c0-0.217,0.043-0.422,0.123-0.613c0.086-0.192,0.201-0.377,0.35-0.549
			c0.26-0.31,0.567-0.596,0.921-0.859s0.725-0.486,1.116-0.676c0.742-0.373,1.551-0.629,2.425-0.768
			c0.094-0.015,0.176-0.008,0.252,0.024c0.072,0.03,0.11,0.092,0.11,0.185c0,0.11-0.042,0.215-0.124,0.313
			c-0.085,0.101-0.161,0.188-0.238,0.267c-0.148,0.125-0.298,0.241-0.447,0.348c-0.147,0.111-0.314,0.203-0.503,0.277
			c-0.094,0.062-0.19,0.114-0.293,0.153c-0.104,0.039-0.21,0.074-0.32,0.103c-0.11,0.032-0.221,0.059-0.332,0.082
			c-0.11,0.024-0.221,0.051-0.332,0.082v0.024c-0.055,0.203-0.047,0.435,0.029,0.696c0.111,0.296,0.295,0.562,0.545,0.804
			c0.252,0.242,0.533,0.444,0.849,0.615c0.593,0.295,1.253,0.465,1.979,0.512c0.369,0,0.771-0.039,1.195-0.117
			c0.299-0.047,0.584-0.116,0.864-0.21c0.019,0,0.035-0.003,0.043-0.011c0.009-0.009,0.021-0.011,0.044-0.011l0.084-0.211
			c0.056-0.309,0.038-0.635-0.056-0.977c-0.133-0.328-0.307-0.637-0.527-0.932c-0.222-0.295-0.466-0.572-0.726-0.836
			c-0.314-0.295-0.651-0.564-1-0.813c-0.355-0.249-0.733-0.473-1.144-0.675c0.072,0.031,0.119,0.053,0.141,0.07
			c-0.332-0.17-0.66-0.348-0.976-0.533c-0.314-0.186-0.631-0.387-0.945-0.604c-0.277-0.203-0.556-0.402-0.823-0.604
			c-0.269-0.202-0.522-0.427-0.767-0.677c-0.094-0.105-0.192-0.223-0.294-0.348s-0.184-0.257-0.238-0.396
			c-0.04-0.078-0.064-0.152-0.087-0.22c-0.017-0.071-0.017-0.143,0-0.222c0.039-0.249,0.13-0.448,0.278-0.604
			c0.332-0.388,0.736-0.707,1.209-0.964c0.474-0.256,0.989-0.43,1.548-0.521c0.298-0.061,0.593-0.089,0.892-0.081
			c0.297,0.007,0.592,0.027,0.89,0.058c0.394,0,0.771,0.045,1.143,0.139c0.276,0.078,0.575,0.186,0.892,0.326
			c0.26,0.125,0.512,0.23,0.754,0.326c0.242,0.094,0.512,0.158,0.811,0.186c0.056-0.014,0.149-0.023,0.276-0.023
			c0.094-0.016,0.184-0.008,0.264,0.023c0.086,0.033,0.115,0.086,0.1,0.164c0,0.109-0.039,0.213-0.11,0.313
			c-0.072,0.101-0.158,0.188-0.252,0.268c-0.132,0.124-0.272,0.238-0.432,0.338c-0.158,0.1-0.318,0.199-0.485,0.292
			c-0.132,0.078-0.269,0.14-0.416,0.185c-0.15,0.047-0.3,0.078-0.447,0.094c-0.205,0.031-0.41,0.041-0.613,0.035
			c-0.205-0.008-0.41-0.035-0.613-0.082c-0.149-0.032-0.295-0.074-0.432-0.129c-0.141-0.054-0.286-0.113-0.432-0.175
			c-0.261-0.124-0.521-0.227-0.779-0.313c-0.26-0.084-0.526-0.151-0.81-0.198c0.261,0.265,0.55,0.506,0.865,0.724
			c0.724,0.557,1.479,1.036,2.257,1.438c0.095,0.062,0.197,0.12,0.309,0.174s0.213,0.112,0.308,0.174
			c0.763,0.435,1.448,0.978,2.063,1.628c0.26,0.277,0.485,0.588,0.683,0.917c0.195,0.335,0.319,0.681,0.374,1.035L177.971,58.676z"
			/>
		<path d="M46.669,79.316c0.642,0.127,1.277,0.188,1.909,0.188c1.005,0,1.772-0.188,2.298-0.564
			c0.526-0.379,0.792-0.844,0.792-1.399c0-0.365-0.12-0.717-0.359-1.058c-0.24-0.338-0.625-0.604-1.167-0.799
			c-0.542-0.195-1.204-0.291-1.997-0.291c-0.344,0-0.635,0.004-0.88,0.012c-0.245,0.011-0.442,0.027-0.588,0.05v3.858L46.669,79.316
			z M46.669,74.818c0.204,0.029,0.438,0.057,0.705,0.072c0.267,0.019,0.553,0.026,0.871,0.026c0.809,0,1.418-0.074,1.824-0.218
			c0.406-0.147,0.719-0.369,0.938-0.67s0.323-0.631,0.323-0.986c0-0.551-0.271-1.021-0.808-1.408
			c-0.538-0.387-1.324-0.582-2.355-0.582c-0.552,0-1.052,0.054-1.496,0.152v3.615v-0.002H46.669z M51.033,75.191
			c0.782,0.14,1.365,0.36,1.756,0.666c0.537,0.426,0.809,0.947,0.809,1.561c0,0.465-0.177,0.912-0.532,1.344
			c-0.354,0.426-0.844,0.738-1.459,0.938c-0.62,0.196-1.564,0.296-2.834,0.296h-5.327v-0.257h0.422c0.47,0,0.809-0.126,1.017-0.374
			c0.125-0.16,0.193-0.508,0.193-1.035v-6.081c0-0.582-0.078-0.951-0.24-1.104c-0.219-0.205-0.537-0.306-0.964-0.306h-0.422v-0.257
			h4.877c0.913,0,1.642,0.057,2.189,0.165c0.833,0.166,1.47,0.461,1.908,0.887c0.438,0.423,0.656,0.909,0.656,1.461
			c0,0.475-0.172,0.896-0.516,1.266c-0.344,0.373-0.849,0.647-1.522,0.83H51.033L51.033,75.191z"/>
		<path d="M62.646,70.584h3.935v0.257h-0.219c-0.146,0-0.354,0.053-0.63,0.16c-0.276,0.109-0.531,0.262-0.755,0.457
			c-0.229,0.2-0.506,0.521-0.84,0.975l-2.721,3.572v2.36c0,0.578,0.078,0.939,0.234,1.082c0.208,0.195,0.542,0.292,1,0.292h0.365
			v0.257h-4.795v-0.257h0.401c0.479,0,0.813-0.122,1.017-0.36c0.12-0.148,0.183-0.486,0.183-1.014v-2.225l-3.095-3.942
			c-0.366-0.461-0.616-0.754-0.746-0.87c-0.13-0.117-0.401-0.257-0.813-0.417c-0.109-0.049-0.271-0.069-0.484-0.069v-0.257h4.826
			v0.257h-0.25c-0.26,0-0.5,0.054-0.719,0.152c-0.22,0.099-0.329,0.256-0.329,0.456c0,0.165,0.167,0.466,0.505,0.904l2.355,3.032
			l2.216-2.897c0.333-0.436,0.5-0.762,0.5-0.975c0-0.131-0.042-0.244-0.12-0.348c-0.078-0.1-0.198-0.184-0.344-0.239
			c-0.146-0.057-0.375-0.087-0.672-0.087v-0.257H62.646z"/>
		<path d="M82.482,75.156c0.104,0,0.198,0,0.276,0c0.078,0,0.141,0,0.193,0c1.074,0,1.886-0.195,2.434-0.582
			s0.818-0.883,0.818-1.486c0-0.603-0.219-1.063-0.663-1.435c-0.442-0.369-1.026-0.553-1.751-0.553
			c-0.323,0-0.755,0.045-1.309,0.131v3.913L82.482,75.156L82.482,75.156z M90.499,79.996h-3.013l-3.82-4.4
			c-0.281,0.01-0.51,0.014-0.693,0.014c-0.073,0-0.151,0-0.234,0s-0.167-0.004-0.255-0.008v2.733c0,0.591,0.078,0.961,0.234,1.104
			c0.208,0.203,0.526,0.305,0.948,0.305h0.443V80h-4.837v-0.256h0.421c0.479,0,0.818-0.131,1.022-0.387
			c0.115-0.146,0.177-0.483,0.177-1.022v-6.081c0-0.591-0.078-0.961-0.234-1.104c-0.22-0.203-0.538-0.305-0.965-0.305h-0.422v-0.256
			h4.113c1.198,0,2.079,0.074,2.647,0.217c0.568,0.148,1.052,0.414,1.449,0.805c0.396,0.392,0.594,0.856,0.594,1.399
			c0,0.578-0.224,1.082-0.677,1.504c-0.454,0.426-1.152,0.728-2.101,0.904l2.331,2.699c0.532,0.622,0.991,1.031,1.371,1.234
			c0.38,0.205,0.88,0.336,1.496,0.388v0.257H90.499z"/>
		<path d="M97.206,79.739v0.257h-4.837v-0.257h0.399c0.465,0,0.804-0.112,1.019-0.339c0.136-0.148,0.197-0.504,0.197-1.07v-6.081
			c0-0.479-0.037-0.791-0.108-0.943c-0.058-0.117-0.167-0.213-0.339-0.3c-0.246-0.112-0.502-0.165-0.769-0.165h-0.399v-0.257h4.837
			v0.257h-0.407c-0.459,0-0.797,0.113-1.006,0.34c-0.142,0.146-0.208,0.504-0.208,1.068v6.081c0,0.479,0.036,0.792,0.109,0.943
			c0.058,0.117,0.172,0.213,0.349,0.301c0.239,0.113,0.489,0.165,0.756,0.165H97.206z"/>
		<path d="M106.984,70.584h3.936v0.257h-0.219c-0.146,0-0.354,0.053-0.631,0.16c-0.276,0.109-0.532,0.262-0.757,0.457
			c-0.229,0.2-0.505,0.521-0.839,0.975l-2.721,3.572v2.36c0,0.578,0.078,0.939,0.233,1.082c0.209,0.195,0.541,0.292,1.001,0.292
			h0.365v0.257h-4.796v-0.257h0.401c0.48,0,0.814-0.122,1.017-0.36c0.12-0.148,0.183-0.486,0.183-1.014v-2.225l-3.096-3.942
			c-0.365-0.461-0.615-0.754-0.746-0.87c-0.129-0.117-0.4-0.257-0.813-0.417c-0.109-0.049-0.271-0.069-0.484-0.069v-0.257h4.827
			v0.257h-0.25c-0.262,0-0.501,0.054-0.72,0.152s-0.328,0.256-0.328,0.456c0,0.165,0.166,0.466,0.505,0.904l2.356,3.032l2.214-2.897
			c0.334-0.436,0.5-0.762,0.5-0.975c0-0.131-0.041-0.244-0.119-0.348s-0.197-0.184-0.344-0.239
			c-0.146-0.057-0.375-0.087-0.672-0.087v-0.257H106.984z"/>
		<path d="M117.554,76.331l-1.913-3.803l-1.964,3.803H117.554z M117.787,76.844h-4.366l-0.768,1.486
			c-0.188,0.365-0.281,0.641-0.281,0.818c0,0.143,0.084,0.27,0.244,0.377c0.162,0.108,0.517,0.18,1.064,0.214v0.257h-3.554v-0.257
			c0.469-0.069,0.775-0.161,0.917-0.271c0.28-0.222,0.594-0.674,0.939-1.353l3.971-7.746h0.291l3.932,7.829
			c0.317,0.63,0.604,1.039,0.858,1.226c0.256,0.188,0.615,0.292,1.079,0.318V80h-4.45v-0.256c0.447-0.018,0.751-0.083,0.913-0.188
			c0.155-0.104,0.237-0.234,0.237-0.388c0-0.205-0.108-0.524-0.332-0.965l-0.685-1.353L117.787,76.844z"/>
	</g>
</g>
</svg>
